<svg width="24" height="18" viewBox="0 0 24 18" fill="none" xmlns="http://www.w3.org/2000/svg">
<rect x="0.5" y="17.5" width="17" height="23" rx="3.5" transform="rotate(-90 0.5 17.5)" stroke="#787878"/>
<path d="M7.21094 7.02344V10.3013C7.21094 10.8459 7.04004 11.2765 6.69824 11.5933C6.35872 11.91 5.89388 12.0684 5.30371 12.0684C4.72266 12.0684 4.26123 11.9146 3.91943 11.6069C3.57764 11.2993 3.40332 10.8766 3.39648 10.3389V7.02344H4.42188V10.3081C4.42188 10.634 4.49935 10.8721 4.6543 11.0225C4.81152 11.1706 5.02799 11.2446 5.30371 11.2446C5.88021 11.2446 6.17301 10.9416 6.18213 10.3354V7.02344H7.21094ZM9.14209 12H8.1167V7.02344H9.14209V12ZM10.3418 12.4272H9.60693L11.439 7.02344H12.1738L10.3418 12.4272ZM16.4805 7.02344V10.3013C16.4805 10.8459 16.3096 11.2765 15.9678 11.5933C15.6283 11.91 15.1634 12.0684 14.5732 12.0684C13.9922 12.0684 13.5308 11.9146 13.189 11.6069C12.8472 11.2993 12.6729 10.8766 12.666 10.3389V7.02344H13.6914V10.3081C13.6914 10.634 13.7689 10.8721 13.9238 11.0225C14.0811 11.1706 14.2975 11.2446 14.5732 11.2446C15.1497 11.2446 15.4425 10.9416 15.4517 10.3354V7.02344H16.4805ZM19.1021 8.73926L20.0352 7.02344H21.2144L19.7651 9.49121L21.252 12H20.0591L19.1021 10.2568L18.145 12H16.9521L18.439 9.49121L16.9897 7.02344H18.1689L19.1021 8.73926Z" fill="#787878"/>
</svg>
