<svg width="600" height="514" viewBox="0 0 600 514" fill="none" xmlns="http://www.w3.org/2000/svg">
<circle cx="278" cy="250" r="250" fill="#F2F2F2"/>
<g clip-path="url(#clip0)">
<path d="M353.338 141.638V363.528C353.338 366.166 352.29 368.696 350.424 370.561C348.559 372.427 346.029 373.475 343.39 373.475H23.6761C22.7553 373.475 21.8435 373.293 20.9928 372.941C20.142 372.589 19.3691 372.072 18.7179 371.421C18.0668 370.77 17.5503 369.997 17.1979 369.146C16.8456 368.296 16.6642 367.384 16.6642 366.463V169.042C16.6642 157.07 21.4204 145.587 29.8864 137.121C38.3524 128.655 49.8348 123.899 61.8076 123.899H335.599C337.928 123.899 340.235 124.358 342.387 125.249C344.539 126.141 346.495 127.447 348.142 129.094C349.789 130.742 351.096 132.697 351.987 134.849C352.879 137.002 353.338 139.308 353.338 141.638Z" fill="#F2F2F2"/>
<path d="M234.604 322.31C234.63 340.05 230.568 357.558 222.734 373.475H23.6761C22.7553 373.475 21.8435 373.294 20.9928 372.941C20.142 372.589 19.3691 372.072 18.7179 371.421C18.0668 370.77 17.5503 369.997 17.1979 369.146C16.8456 368.296 16.6642 367.384 16.6642 366.463V266.911C28.9787 244.244 48.497 226.328 72.1335 215.996C95.77 205.664 122.176 203.504 147.177 209.859C172.178 216.215 194.348 230.721 210.181 251.087C226.015 271.452 234.608 296.514 234.604 322.31V322.31Z" fill="#2F2E41"/>
<path d="M353.338 303.797V363.528C353.338 366.166 352.29 368.696 350.424 370.561C348.559 372.427 346.029 373.475 343.391 373.475H23.2353C21.3893 373.475 19.6189 372.742 18.3134 371.437C17.0079 370.132 16.2742 368.361 16.2737 366.515V366.445C16.2737 316.694 171.015 274.258 215.013 257.78C239.858 248.504 267.13 248.011 292.294 256.383C317.459 264.754 339 281.486 353.338 303.797H353.338Z" fill="#3F3D56"/>
<path d="M300.61 221.152C316.573 221.152 329.513 208.212 329.513 192.249C329.513 176.287 316.573 163.347 300.61 163.347C284.648 163.347 271.708 176.287 271.708 192.249C271.708 208.212 284.648 221.152 300.61 221.152Z" fill="#FF6584"/>
<path d="M149.719 198.881C149.719 255.259 116.203 274.944 74.8595 274.944C33.5158 274.944 0 255.259 0 198.881C0 142.503 74.8595 70.7812 74.8595 70.7812C74.8595 70.7812 149.719 142.503 149.719 198.881Z" fill="#6C63FF"/>
<path d="M72.1326 266.32L72.8994 219.136L104.806 160.764L73.0191 211.734L73.3639 190.519L95.354 148.287L73.4555 184.905L74.0749 146.748L97.6229 113.126L74.1728 140.748L74.5602 70.7812L72.1257 163.404L72.3258 159.583L48.385 122.938L71.9421 166.918L69.7114 209.533L69.6449 208.402L42.0453 169.838L69.5614 212.398L69.2826 217.727L69.2325 217.808L69.2554 218.245L63.5958 326.362H71.1572L72.0645 270.518L99.513 228.062L72.1326 266.32Z" fill="#3F3D56"/>
<path d="M271.776 173.042C271.776 218.392 244.817 234.227 211.56 234.227C178.303 234.227 151.343 218.392 151.343 173.042C151.343 127.692 211.56 70 211.56 70C211.56 70 271.776 127.692 271.776 173.042Z" fill="#6C63FF"/>
<path d="M209.366 227.29L209.983 189.336L235.649 142.382L210.08 183.382L210.357 166.316L228.046 132.345L210.43 161.8L210.929 131.107L229.87 104.062L211.007 126.281L211.319 70L209.361 144.505L209.522 141.432L190.264 111.954L209.213 147.332L207.419 181.611L207.365 180.701L185.164 149.68L207.298 183.915L207.074 188.202L207.033 188.267L207.052 188.619L202.499 275.588H208.582L209.311 230.667L231.391 196.516L209.366 227.29Z" fill="#3F3D56"/>
<path d="M395.831 237.015C395.831 267.546 377.68 278.207 355.291 278.207C332.901 278.207 314.751 267.546 314.751 237.015C314.751 206.484 355.291 167.643 355.291 167.643C355.291 167.643 395.831 206.484 395.831 237.015Z" fill="#6C63FF"/>
<path d="M353.814 273.536L354.229 247.985L371.508 216.373L354.294 243.976L354.48 232.487L366.389 209.616L354.53 229.447L354.866 208.783L367.618 190.575L354.918 205.533L355.129 167.643L353.81 217.803L353.918 215.734L340.953 195.888L353.71 219.706L352.502 242.784L352.466 242.171L337.52 221.287L352.421 244.335L352.27 247.221L352.243 247.265L352.256 247.502L349.191 306.052H353.286L353.777 275.81L368.642 252.818L353.814 273.536Z" fill="#3F3D56"/>
<path d="M96.9698 293.347C95.1756 296.209 92.8478 296.141 90.749 294.826C88.6502 293.51 87.5753 291.444 89.3695 288.582C91.1636 285.72 97.2463 284.461 97.2463 284.461C97.2463 284.461 98.764 290.485 96.9698 293.347Z" fill="#6C63FF"/>
<path d="M41.1179 301.158C39.3237 304.02 36.9959 303.953 34.8971 302.637C32.7983 301.321 31.7234 299.255 33.5175 296.393C35.3117 293.532 41.3943 292.273 41.3943 292.273C41.3943 292.273 42.912 298.296 41.1179 301.158Z" fill="#6C63FF"/>
<path d="M239.116 287.391C239.448 290.752 237.566 292.123 235.1 292.367C232.635 292.61 230.521 291.634 230.189 288.273C229.857 284.911 233.898 280.194 233.898 280.194C233.898 280.194 238.784 284.029 239.116 287.391Z" fill="#6C63FF"/>
<path d="M174.694 245.697C172.9 248.559 170.572 248.491 168.473 247.176C166.374 245.86 165.299 243.794 167.093 240.932C168.888 238.07 174.97 236.812 174.97 236.812C174.97 236.812 176.488 242.835 174.694 245.697Z" fill="#6C63FF"/>
<path d="M323.111 289.831C321.317 292.693 318.989 292.626 316.891 291.31C314.792 289.995 313.717 287.929 315.511 285.067C317.305 282.205 323.388 280.946 323.388 280.946C323.388 280.946 324.905 286.97 323.111 289.831Z" fill="#6C63FF"/>
<path d="M578.349 338.539C578.349 432.288 535.784 506.244 483.365 508.286C415.007 510.949 325.667 442.789 388.381 338.539C436.707 258.205 430.907 168.791 483.365 168.791C535.823 168.791 578.349 244.79 578.349 338.539Z" fill="#F2F2F2"/>
<path d="M456.493 513.607C503.22 513.607 541.1 509.557 541.1 504.561C541.1 499.565 503.22 495.515 456.493 495.515C409.765 495.515 371.885 499.565 371.885 504.561C371.885 509.557 409.765 513.607 456.493 513.607Z" fill="#3F3D56"/>
<path d="M529.123 392.219C529.455 395.581 527.573 396.952 525.108 397.195C522.643 397.439 520.528 396.462 520.196 393.101C519.864 389.739 523.905 385.022 523.905 385.022C523.905 385.022 528.791 388.858 529.123 392.219Z" fill="#6C63FF"/>
<path d="M494.487 382.573C492.693 385.435 490.365 385.368 488.266 384.052C486.167 382.736 485.093 380.67 486.887 377.808C488.681 374.946 494.763 373.688 494.763 373.688C494.763 373.688 496.281 379.711 494.487 382.573Z" fill="#6C63FF"/>
<path d="M492.541 459.923C492.541 459.923 496.547 477.356 502.788 481.114C509.029 484.871 487.555 491.996 487.555 491.996C487.555 491.996 478.209 497.79 475.782 499.885C473.354 501.98 462.95 506.463 464.665 503.134C466.38 499.805 469.393 493.474 474.15 488.214C478.907 482.955 485.162 473.539 479.713 466.206C474.265 458.872 492.541 459.923 492.541 459.923Z" fill="#FFB9B9"/>
<path d="M470.845 247.833L468.745 247.083C468.745 247.083 463.345 246.333 458.395 252.633C453.445 258.933 442.119 278.059 442.119 278.059L437.919 287.959L452.769 288.409L463.945 263.808L470.845 247.833Z" fill="#FF6584"/>
<path opacity="0.1" d="M470.845 247.833L468.745 247.083C468.745 247.083 463.345 246.333 458.395 252.633C453.445 258.933 442.119 278.059 442.119 278.059L437.919 287.959L452.769 288.409L463.945 263.808L470.845 247.833Z" fill="black"/>
<path d="M468.595 400.161C468.595 400.161 477.07 402.036 475.645 408.561C474.22 415.086 484.495 423.562 485.47 424.987C486.445 426.412 487.87 427.012 486.97 429.187C486.07 431.362 507.896 462.037 503.546 464.812C499.195 467.588 463.945 478.463 460.795 476.288C457.645 474.113 455.095 402.936 455.095 402.936L468.595 400.161Z" fill="#2F2E41"/>
<path opacity="0.1" d="M468.595 400.161C468.595 400.161 477.07 402.036 475.645 408.561C474.22 415.086 484.495 423.562 485.47 424.987C486.445 426.412 487.87 427.012 486.97 429.187C486.07 431.362 507.896 462.037 503.546 464.812C499.195 467.588 463.945 478.463 460.795 476.288C457.645 474.113 455.095 402.936 455.095 402.936L468.595 400.161Z" fill="black"/>
<path d="M449.319 477.563C449.319 477.563 444.069 494.663 447.594 501.038C451.119 507.413 428.961 502.843 428.961 502.843C428.961 502.843 417.97 503.185 414.819 503.785C411.669 504.385 400.418 503.063 403.569 501.038C406.719 499.013 412.494 495.038 419.244 492.863C425.994 490.688 436.119 485.663 435.069 476.588C434.019 467.513 449.319 477.563 449.319 477.563Z" fill="#FFB9B9"/>
<path d="M439.494 306.634C442.4 304.559 445.899 303.48 449.469 303.559C455.245 303.784 474.145 308.284 473.62 309.184C473.102 309.976 472.525 310.728 471.895 311.434C471.895 311.434 473.095 316.909 472.57 317.434C472.045 317.959 482.845 330.335 476.545 356.885C470.245 383.436 470.92 401.811 470.92 401.811C470.92 401.811 473.47 479.663 466.195 481.238C458.92 482.813 430.269 481.763 428.919 478.688C427.569 475.612 433.044 380.136 433.044 380.136C433.044 380.136 433.644 332.135 435.069 326.284C436.494 320.434 439.494 306.634 439.494 306.634Z" fill="#2F2E41"/>
<path d="M472.532 238.87C482.515 238.87 490.608 230.778 490.608 220.795C490.608 210.812 482.515 202.719 472.532 202.719C462.55 202.719 454.457 210.812 454.457 220.795C454.457 230.778 462.55 238.87 472.532 238.87Z" fill="#FFB9B9"/>
<path d="M469.795 232.758C469.795 232.758 480.97 243.708 467.17 252.183C457.453 258.151 490.645 247.533 490.645 247.533C490.645 247.533 483.745 229.908 484.795 225.858C485.845 221.807 469.795 232.758 469.795 232.758Z" fill="#FFB9B9"/>
<path d="M472.57 249.858C472.57 249.858 488.095 242.733 490.645 245.283C493.195 247.833 504.221 258.333 492.22 276.934C480.22 295.534 477.895 309.484 475.87 311.059C473.845 312.634 472.57 309.034 472.57 309.034C472.57 309.034 466.72 303.709 462.895 303.709C459.07 303.709 442.719 305.509 442.719 305.509L447.294 287.359C447.294 287.359 445.044 273.033 452.695 265.908C460.345 258.783 468.745 247.083 468.745 247.083L473.077 246.292L470.216 249.934C470.216 249.934 469.795 251.058 472.57 249.858Z" fill="#FF6584"/>
<path d="M513.519 371.967C482.174 360.519 478.035 337.888 486.43 314.902C494.826 291.916 512.576 277.279 543.92 288.727C575.265 300.175 599.939 356.358 599.939 356.358C599.939 356.358 544.863 383.414 513.519 371.967Z" fill="#6C63FF"/>
<path d="M491.779 315.136L517.856 325.144L543.83 354.736L521.947 326.713L533.672 331.213L552.686 352.014L536.775 332.404L557.863 340.496L571.774 360.415L561.179 341.769L600 356.191L548.998 336.03L551.082 336.917L576.317 331.048L547.082 335.215L523.843 325.321L524.485 325.514L551.53 318L522.28 324.656L519.374 323.419L519.339 323.375L519.091 323.299L460.13 298.198L458.595 302.402L489.459 314.246L507.489 338.128L491.779 315.136Z" fill="#3F3D56"/>
<path d="M436.869 289.459C436.869 289.459 430.194 298.459 434.619 301.834C439.044 305.209 448.344 299.434 448.344 299.434C448.344 299.434 469.795 314.359 469.495 305.584C469.195 296.809 453.82 290.734 453.82 290.734L443.469 291.034L445.044 285.859L440.694 285.409L436.869 289.459Z" fill="#FFB9B9"/>
<path opacity="0.1" d="M436.869 289.459C436.869 289.459 430.194 298.459 434.619 301.834C439.044 305.209 448.344 299.434 448.344 299.434C448.344 299.434 469.795 314.359 469.495 305.584C469.195 296.809 453.82 290.734 453.82 290.734L443.469 291.034L445.044 285.859L440.694 285.409L436.869 289.459Z" fill="black"/>
<path d="M481.645 272.134C481.645 272.134 439.494 304.609 436.794 293.209C435.039 285.8 436.389 267.557 437.549 255.691C438.379 247.052 442.237 238.984 448.441 232.915C450.97 230.452 453.316 228.906 454.494 230.058C457.795 233.283 446.769 246.183 446.769 246.183C446.769 246.183 444.969 272.359 448.569 275.359C448.569 275.359 461.612 262.765 464.316 262.949C467.02 263.133 481.645 272.134 481.645 272.134Z" fill="#FFB9B9"/>
<path d="M509.565 237.697C506.112 232.499 503.261 224.139 500.185 216.776C499.188 214.39 498.277 211.973 497.385 209.545C495.587 204.652 487.761 198.337 477.512 198.337C465.797 198.337 456.3 204.232 456.3 209.179C456.3 213.268 462.794 216.715 471.664 217.787C468.547 224.743 466.67 232.462 466.67 237.697C466.67 249.542 476.273 244.531 488.118 244.531C499.963 244.531 516.119 247.563 509.565 237.697Z" fill="#2F2E41"/>
<path d="M490.645 251.883C490.645 251.883 498.145 271.008 481.27 275.358C481.27 275.358 477.97 270.783 472.57 270.033C467.17 269.283 462.37 263.658 462.37 263.658C462.37 263.658 473.395 248.133 482.02 247.833C490.645 247.533 490.645 251.883 490.645 251.883Z" fill="#FF6584"/>
</g>
<defs>
<clipPath id="clip0">
<rect width="600" height="443.607" fill="white" transform="translate(0 70)"/>
</clipPath>
</defs>
</svg>
