<svg width="700" height="582" viewBox="0 0 700 582" fill="none" xmlns="http://www.w3.org/2000/svg">
<circle cx="27" cy="446" r="25" fill="#B0FF95"/>
<g clip-path="url(#clip0)">
<path opacity="0.1" d="M698.686 191.393H634.1V269.685H693.966C694.12 270.493 694.268 271.3 694.443 272.101H634.1V335.227L634.402 335.128C636.106 334.529 637.799 333.892 639.481 333.218L640.563 332.775C642.286 332.068 643.979 331.312 645.641 330.506C646.239 330.232 646.829 329.944 647.412 329.649C656.699 325.076 665.261 319.159 672.821 312.087C673.039 311.897 673.242 311.7 673.439 311.511C674.472 310.513 675.483 309.509 676.467 308.476L677.548 307.324C678.708 306.067 679.825 304.767 680.913 303.453L681.391 302.877C685.768 297.51 689.446 291.609 692.336 285.315C692.427 285.125 692.504 284.929 692.589 284.739C693.467 282.758 694.261 280.749 694.949 278.705C695.244 277.841 695.525 276.977 695.771 276.112C695.855 275.853 695.933 275.6 696.003 275.347C699.586 262.807 700 249.776 700 236.815C700 235.305 700 233.788 700 232.284C700 227.051 699.923 221.747 699.824 216.513C699.824 215.151 699.761 213.795 699.726 212.425C699.642 208.945 699.515 205.47 699.347 202C699.305 201.031 699.262 200.068 699.199 199.113C699.199 198.558 699.143 198.003 699.108 197.448C698.967 195.39 698.841 193.395 698.686 191.393Z" fill="#6C63FF"/>
<path opacity="0.1" d="M634.1 104.235H669.526C663.718 96.1653 657.419 88.4609 650.664 81.1653C645.396 75.419 639.867 69.8132 634.079 64.4181L634.1 104.235Z" fill="#6C63FF"/>
<path opacity="0.1" d="M634.1 106.652V188.976H698.483C698.483 188.737 698.44 188.491 698.419 188.273C698.363 187.627 698.307 186.981 698.244 186.328C698.18 185.674 698.096 184.81 698.012 184.045C697.928 183.279 697.843 182.394 697.745 181.579C697.647 180.764 697.562 179.928 697.457 179.106C697.352 178.284 697.253 177.462 697.141 176.647C697.028 175.832 696.923 175.004 696.797 174.189C696.698 173.486 696.607 172.84 696.502 172.158C696.354 171.203 696.199 170.241 696.038 169.292C696.02 169.151 695.994 169.01 695.961 168.871C694.798 161.891 693.217 154.987 691.226 148.197C689.121 141.003 686.45 133.986 683.239 127.213C679.776 120.049 675.757 113.167 671.219 106.63L634.1 106.652Z" fill="#6C63FF"/>
<path opacity="0.1" d="M480.719 191.393V269.685H618.673V191.393H480.719ZM480.719 272.101V325.118C496.778 319.983 515.141 322.055 531.79 326.27C544.68 329.544 557.241 333.997 570.11 337.201C575.858 338.669 581.694 339.772 587.581 340.502L589.028 340.657C589.731 340.727 590.433 340.797 591.136 340.854L593.243 341.001H593.461H594.402C594.51 341.008 594.618 341.008 594.725 341.001L595.863 341.043H595.898C596.439 341.043 596.987 341.043 597.535 341.085H598.238C598.779 341.085 599.327 341.085 599.875 341.085H601.076H602.045C602.46 341.085 602.867 341.085 603.275 341.043C603.935 341.043 604.595 340.987 605.263 340.938L606.492 340.861L608.009 340.741C609.084 340.657 610.117 340.545 611.206 340.418C611.627 340.369 612.056 340.32 612.477 340.256L613.102 340.179C614.163 340.039 615.21 339.87 616.271 339.694C617.05 339.575 617.83 339.428 618.617 339.287V272.101H480.719ZM583.324 104.207V106.623H480.719V188.976H618.673V106.652H611.754V104.235H618.673V51.0286C591.838 29.4131 560.472 12.4832 525.537 4.6645C510.824 1.40773 495.787 -0.159581 480.719 -0.00703482V104.235L583.324 104.207ZM267.907 103.743L268.392 104.207H465.285V0.716526C430.231 3.63185 396.048 15.4055 368.49 34.9136C355.248 44.2777 343.355 55.377 328.497 62.5635C320.7 66.4321 312.183 68.6332 303.488 69.0263L267.907 103.743ZM266.552 61.2849V84.7129L285.575 66.1462C278.501 63.7015 272.923 62.0296 266.524 61.313L266.552 61.2849ZM265.919 356.02H266.552V407.372C273.731 406.838 280.882 406.103 288.006 405.166C319.858 401.062 351.07 392.976 380.909 381.099C384.113 379.816 387.293 378.491 390.449 377.123C392.552 376.21 394.643 375.273 396.722 374.313C399.841 372.88 402.937 371.407 406.009 369.894C419.605 363.212 432.719 355.593 445.257 347.092C446.037 346.565 446.824 346.031 447.597 345.49C449.151 344.413 450.695 343.326 452.226 342.23C452.992 341.676 453.757 341.121 454.516 340.559L456.076 339.364C457.649 338.191 459.216 337.011 460.803 335.852C462.271 334.798 463.754 333.744 465.257 332.761V272.066H307.092C307.205 271.708 307.31 271.364 307.429 270.984C307.303 271.35 307.19 271.687 307.085 272.066H266.524V356.006L265.919 356.02ZM266.552 106.637V188.976H465.285V106.652L266.552 106.637ZM266.552 191.378V269.685H465.285V191.393L266.552 191.378ZM226.819 63.6945L251.097 87.3893V61.1796C242.962 61.6854 234.869 62.5237 226.819 63.6945ZM57.7655 191.393V269.685H251.097V191.393H57.7655ZM104.495 384.752C133.798 395.908 164.437 403.177 195.629 406.375H195.762C201.658 406.997 207.571 407.48 213.5 407.822H213.718C226.145 408.524 238.621 408.686 251.076 408.222V272.101H57.7655L58.468 362.244L104.495 384.752ZM4.21497 269.685H42.346V191.393H27.2636C25.697 194.146 24.1796 196.914 22.7395 199.724C21.9668 201.218 21.2151 202.728 20.4846 204.255C10.5584 224.859 4.25009 247.507 4.21497 269.685ZM4.21497 272.101C4.52406 288.006 8.10675 303.615 15.9676 318.037C22.5007 330.014 31.5768 340.516 42.3178 349.649V272.101H4.21497ZM28.6475 188.976H42.3178V168.604C37.3907 175.132 32.836 181.934 28.6756 188.976H28.6475ZM114.302 104.235H246.538L247.015 103.771L246.313 103.069L209.13 66.7995C198.094 69.1031 187.196 72.0229 176.486 75.5454C175.474 75.8756 174.463 76.2479 173.458 76.564C152.779 83.578 132.94 92.8581 114.302 104.235ZM57.7655 150.157V188.976H227.318H227.353H251.118V108.892L248.406 106.687H110.41C91.0632 118.849 73.3686 133.46 57.7655 150.157Z" fill="#6C63FF"/>
<path opacity="0.1" d="M634.1 148.176V188.976H698.483C698.483 188.737 698.44 188.491 698.419 188.274C698.363 187.627 698.307 186.981 698.244 186.328C698.18 185.674 698.096 184.81 698.012 184.045C697.928 183.279 697.843 182.394 697.745 181.579C697.647 180.764 697.562 179.928 697.457 179.106C697.352 178.284 697.253 177.462 697.141 176.647C697.028 175.832 696.923 175.004 696.797 174.189C696.698 173.486 696.607 172.84 696.502 172.158C696.354 171.203 696.199 170.241 696.038 169.292C696.02 169.151 695.994 169.01 695.961 168.871C694.798 161.891 693.217 154.987 691.226 148.197L634.1 148.176Z" fill="#6C63FF"/>
<path opacity="0.1" d="M698.686 191.393H634.1V269.685H693.966C694.12 270.493 694.268 271.3 694.443 272.101H634.1V335.227L634.402 335.128C636.106 334.529 637.799 333.892 639.481 333.218L640.563 332.775C642.286 332.068 643.979 331.312 645.641 330.506C646.239 330.232 646.829 329.944 647.412 329.649C656.699 325.076 665.261 319.159 672.821 312.087C673.039 311.897 673.242 311.7 673.439 311.511C674.472 310.513 675.483 309.509 676.467 308.476L677.548 307.324C678.708 306.067 679.825 304.767 680.913 303.453L681.391 302.877C685.768 297.51 689.446 291.609 692.336 285.315C692.427 285.125 692.504 284.929 692.589 284.739C693.467 282.758 694.261 280.749 694.949 278.705C695.244 277.841 695.525 276.977 695.771 276.112C695.855 275.853 695.933 275.6 696.003 275.347C699.586 262.807 700 249.776 700 236.815C700 235.305 700 233.788 700 232.284C700 227.051 699.923 221.747 699.824 216.513C699.824 215.151 699.761 213.795 699.726 212.425C699.642 208.945 699.515 205.47 699.347 202C699.305 201.031 699.262 200.068 699.199 199.113C699.199 198.558 699.143 198.003 699.108 197.448C698.967 195.39 698.841 193.395 698.686 191.393Z" fill="#6C63FF"/>
<path opacity="0.1" d="M570.11 118.439V188.976H618.673V118.439H611.754V94.5547H583.324V118.439H570.11Z" fill="#6C63FF"/>
<path opacity="0.1" d="M618.673 191.393H570.11V269.678H618.673V191.393Z" fill="#6C63FF"/>
<path opacity="0.1" d="M618.673 272.101H570.117V337.201C575.864 338.666 581.696 339.769 587.581 340.502L589.028 340.657C589.731 340.734 590.433 340.797 591.136 340.854L593.243 341.001C593.313 341.001 593.391 341.001 593.461 341.001C593.77 341.001 594.086 341.001 594.402 341.043H594.725C595.105 341.043 595.484 341.043 595.87 341.085C596.411 341.085 596.959 341.085 597.507 341.128H598.21C598.758 341.128 599.298 341.128 599.846 341.128H601.048H602.017L603.253 341.085C603.907 341.085 604.574 341.029 605.234 340.98L606.457 340.903L607.981 340.783C609.049 340.692 610.089 340.587 611.17 340.46L612.442 340.299L613.067 340.221C614.128 340.074 615.175 339.919 616.235 339.737C617.022 339.617 617.795 339.47 618.582 339.329L618.673 272.101Z" fill="#6C63FF"/>
<path opacity="0.1" d="M306.572 110.108H266.523V188.969H306.572V110.108Z" fill="#6C63FF"/>
<path opacity="0.1" d="M266.523 191.393V269.685H465.285V235.916H359.413V255.839H306.565V191.393H266.523Z" fill="#6C63FF"/>
<path opacity="0.1" d="M265.891 356.048H266.523V407.407C273.703 406.864 280.854 406.129 287.977 405.201C319.84 401.081 351.061 392.984 380.909 381.099C389.452 377.671 397.818 373.938 406.009 369.901C419.605 363.217 432.719 355.596 445.257 347.092C448.39 344.965 451.474 342.79 454.509 340.566C456.616 339.013 458.724 337.432 460.831 335.894C462.3 334.84 463.782 333.787 465.285 332.796V272.101H307.099C307.212 271.743 307.317 271.399 307.429 271.026C307.31 271.385 307.19 271.729 307.085 272.101H266.523V356.013L265.891 356.048Z" fill="#6C63FF"/>
<path opacity="0.1" d="M162.085 104.235H188.175V97.0064H176.486V75.5454C175.474 75.8756 174.463 76.2479 173.458 76.564V97.0064H162.085V104.235Z" fill="#6C63FF"/>
<path opacity="0.1" d="M99.2122 188.976H227.318H227.275H227.339H251.097V110.108H244.367V168.414H213.598V133.908H188.175V106.652H162.085V133.908H136.669V168.407H99.2122V188.976Z" fill="#6C63FF"/>
<path opacity="0.1" d="M99.2122 191.393V269.685H251.097V191.393H99.2122ZM104.516 384.752C133.82 395.908 164.458 403.177 195.65 406.375H195.783C201.679 406.997 207.592 407.48 213.521 407.822H213.739C226.166 408.524 238.642 408.686 251.097 408.222V272.101H99.2122V299.857H57.7655L57.9833 361.823" fill="#6C63FF"/>
<path opacity="0.1" d="M39.6695 272.101H4.24304C4.55214 288.006 8.14185 303.615 15.9956 318.037C22.5288 330.021 31.6119 340.516 42.3459 349.649V299.857H39.6695V272.101Z" fill="#6C63FF"/>
<path opacity="0.1" d="M4.21497 269.685H39.6695V204.255H20.4846C10.5584 224.859 4.25009 247.507 4.21497 269.685Z" fill="#6C63FF"/>
<path opacity="0.1" d="M287.977 132.032H266.523V156.76H287.977V132.032Z" fill="#6C63FF"/>
<path opacity="0.1" d="M287.977 183.286H266.523V188.976H287.977V183.286Z" fill="#6C63FF"/>
<path opacity="0.1" d="M287.977 191.393H266.523V208.006H287.977V191.393Z" fill="#6C63FF"/>
<path opacity="0.1" d="M287.977 234.532H266.523V259.26H287.977V234.532Z" fill="#6C63FF"/>
<path opacity="0.1" d="M287.977 285.786H266.523V310.513H287.977V285.786Z" fill="#6C63FF"/>
<path opacity="0.1" d="M266.523 356.013H265.891H266.523V361.753H287.977V337.025H266.523V356.013Z" fill="#6C63FF"/>
<path opacity="0.1" d="M266.524 388.279V407.379C273.703 406.836 280.854 406.101 287.978 405.173V388.314L266.524 388.279Z" fill="#6C63FF"/>
<path opacity="0.1" d="M465.285 267.865H373.344V269.678H465.285V267.865Z" fill="#6C63FF"/>
<path opacity="0.1" d="M465.285 272.101H373.344V279.063H465.285V272.101Z" fill="#6C63FF"/>
<path opacity="0.1" d="M465.285 301.88H373.344V313.077H465.285V301.88Z" fill="#6C63FF"/>
<path opacity="0.1" d="M373.344 335.894V347.092H445.264C448.388 344.97 451.472 342.793 454.516 340.559C456.623 339.013 458.731 337.433 460.838 335.901L373.344 335.894Z" fill="#6C63FF"/>
<path opacity="0.1" d="M373.344 369.901V381.099H380.909C389.447 377.68 397.811 373.948 406.002 369.901H373.344Z" fill="#6C63FF"/>
<path opacity="0.1" d="M195.643 215.08H213.739V198.986H195.643V215.08Z" fill="#6C63FF"/>
<path opacity="0.1" d="M587.532 140.083H605.628V123.989H587.532V140.083Z" fill="#6C63FF"/>
<path opacity="0.1" d="M587.532 177.469H605.628V161.375H587.532V177.469Z" fill="#6C63FF"/>
<path opacity="0.1" d="M587.532 214.849H605.628V198.755H587.532V214.849Z" fill="#6C63FF"/>
<path opacity="0.1" d="M587.532 252.235H605.628V236.141H587.532V252.235Z" fill="#6C63FF"/>
<path opacity="0.1" d="M587.532 289.628H605.628V273.534H587.532V289.628Z" fill="#6C63FF"/>
<path opacity="0.1" d="M587.532 327.008H605.628V310.914H587.532V327.008Z" fill="#6C63FF"/>
<path opacity="0.1" d="M126.546 215.08H144.642V198.986H126.546V215.08Z" fill="#6C63FF"/>
<path opacity="0.1" d="M195.643 254.771H213.739V238.677H195.643V254.771Z" fill="#6C63FF"/>
<path opacity="0.1" d="M126.546 254.771H144.642V238.677H126.546V254.771Z" fill="#6C63FF"/>
<path opacity="0.1" d="M195.643 294.468H213.739V278.374H195.643V294.468Z" fill="#6C63FF"/>
<path opacity="0.1" d="M126.546 294.468H144.642V278.374H126.546V294.468Z" fill="#6C63FF"/>
<path opacity="0.1" d="M195.643 334.166H213.739V318.072H195.643V334.166Z" fill="#6C63FF"/>
<path opacity="0.1" d="M126.546 334.166H144.642V318.072H126.546V334.166Z" fill="#6C63FF"/>
<path opacity="0.1" d="M195.643 373.87H213.739V357.777H195.643V373.87Z" fill="#6C63FF"/>
<path opacity="0.1" d="M126.546 373.87H144.642V357.777H126.546V373.87Z" fill="#6C63FF"/>
<path opacity="0.1" d="M213.732 407.85V397.474H195.643V406.375L213.732 407.85Z" fill="#6C63FF"/>
<path opacity="0.1" d="M634.1 168.843V178.052H696.038V168.843H634.1ZM689.87 169.426H694.921V177.476H689.842L689.87 169.426ZM683.702 169.426H688.781V177.476H683.681L683.702 169.426ZM677.548 169.426H682.627V177.476H677.548V169.426ZM671.381 169.426H676.46V177.476H671.381V169.426ZM665.22 169.426H670.334V177.476H665.255L665.22 169.426ZM659.052 169.426H664.131V177.476H659.052V169.426ZM652.884 169.426H657.963V177.476H652.884V169.426ZM646.723 169.426H651.802V177.476H646.723V169.426ZM640.563 169.426H645.641V177.476H640.563V169.426ZM634.402 169.426H639.481V177.476H634.402V169.426Z" fill="#6C63FF"/>
<path opacity="0.1" d="M634.1 195.65V204.859H696.038V195.65H634.1ZM689.87 196.233H694.921V204.276H689.842L689.87 196.233ZM683.702 196.233H688.781V204.276H683.681L683.702 196.233ZM677.548 196.233H682.627V204.276H677.548V196.233ZM671.381 196.233H676.46V204.276H671.381V196.233ZM665.22 196.233H670.334V204.276H665.255L665.22 196.233ZM659.052 196.233H664.131V204.276H659.052V196.233ZM652.884 196.233H657.963V204.276H652.884V196.233ZM646.723 196.233H651.802V204.276H646.723V196.233ZM640.563 196.233H645.641V204.276H640.563V196.233ZM634.402 196.233H639.481V204.276H634.402V196.233Z" fill="#6C63FF"/>
<path opacity="0.1" d="M634.1 222.449V231.652H696.038V222.449H634.1ZM689.87 223.026H694.921V231.076H689.842L689.87 223.026ZM683.702 223.026H688.781V231.076H683.681L683.702 223.026ZM677.548 223.026H682.627V231.076H677.548V223.026ZM671.381 223.026H676.46V231.076H671.381V223.026ZM665.22 223.026H670.334V231.076H665.255L665.22 223.026ZM659.052 223.026H664.131V231.076H659.052V223.026ZM652.884 223.026H657.963V231.076H652.884V223.026ZM646.723 223.026H651.802V231.076H646.723V223.026ZM640.563 223.026H645.641V231.076H640.563V223.026ZM634.402 223.026H639.481V231.076H634.402V223.026Z" fill="#6C63FF"/>
<path opacity="0.1" d="M634.1 249.249V258.452H696.038V249.249H634.1ZM689.87 249.825H694.921V257.876H689.842L689.87 249.825ZM683.702 249.825H688.781V257.876H683.681L683.702 249.825ZM677.548 249.825H682.627V257.876H677.548V249.825ZM671.381 249.825H676.46V257.876H671.381V249.825ZM665.22 249.825H670.334V257.876H665.255L665.22 249.825ZM659.052 249.825H664.131V257.876H659.052V249.825ZM652.884 249.825H657.963V257.876H652.884V249.825ZM646.723 249.825H651.802V257.876H646.723V249.825ZM640.563 249.825H645.641V257.876H640.563V249.825ZM634.402 249.825H639.481V257.876H634.402V249.825Z" fill="#6C63FF"/>
<path opacity="0.1" d="M634.1 276.049V285.273H692.336C692.42 285.083 692.504 284.887 692.582 284.697H689.87V276.632H694.921V278.634C695.216 277.777 695.497 276.92 695.743 276.049H634.1ZM683.702 276.632H688.781V284.676H683.681L683.702 276.632ZM677.548 276.632H682.627V284.676H677.548V276.632ZM671.381 276.632H676.46V284.676H671.381V276.632ZM665.22 276.632H670.334V284.676H665.255L665.22 276.632ZM659.052 276.632H664.131V284.676H659.052V276.632ZM652.884 276.632H657.963V284.676H652.884V276.632ZM646.723 276.632H651.802V284.676H646.723V276.632ZM640.563 276.632H645.641V284.676H640.563V276.632ZM634.402 276.632H639.481V284.676H634.402V276.632Z" fill="#6C63FF"/>
<path opacity="0.1" d="M634.1 302.835V312.038H672.814C673.039 311.848 673.235 311.644 673.439 311.462H671.381V303.432H676.46V308.455L677.548 307.296V303.432H680.913C681.075 303.235 681.229 303.039 681.391 302.856L634.1 302.835ZM665.22 303.411H670.334V311.462H665.255L665.22 303.411ZM659.052 303.411H664.131V311.462H659.052V303.411ZM652.884 303.411H657.963V311.462H652.884V303.411ZM646.723 303.411H651.802V311.462H646.723V303.411ZM640.562 303.411H645.641V311.462H640.562V303.411ZM634.402 303.411H639.481V311.462H634.402V303.411Z" fill="#6C63FF"/>
<path opacity="0.1" d="M634.1 329.656V335.227C634.203 335.199 634.304 335.164 634.402 335.121V330.204H639.481V333.196L640.562 332.754V330.232H645.641V330.513C646.239 330.239 646.829 329.951 647.412 329.663L634.1 329.656Z" fill="#6C63FF"/>
<path opacity="0.1" d="M227.297 188.99H227.332H227.297ZM265.891 356.048H266.524H265.891ZM307.085 272.101C307.197 271.743 307.303 271.399 307.422 271.019C307.303 271.385 307.19 271.743 307.085 272.101ZM227.297 188.99H227.332H227.297ZM583.324 104.235V106.652H611.754V104.235H583.324ZM265.891 356.048H266.524H265.891ZM307.085 272.101C307.197 271.743 307.303 271.399 307.422 271.019C307.303 271.385 307.19 271.743 307.085 272.101ZM227.297 188.99H227.332H227.297ZM265.891 356.048H266.524H265.891ZM307.085 272.101C307.197 271.743 307.303 271.399 307.422 271.019C307.303 271.385 307.19 271.743 307.085 272.101Z" fill="#6C63FF"/>
<path opacity="0.1" d="M634.31 579.144C647.727 579.144 658.602 577.94 658.602 576.454C658.602 574.968 647.727 573.763 634.31 573.763C620.894 573.763 610.018 574.968 610.018 576.454C610.018 577.94 620.894 579.144 634.31 579.144Z" fill="#6C63FF"/>
<path d="M469.486 376.006L457.347 375.339L456.525 340.474L456.335 332.171L469.142 329.811L469.226 340.516L469.486 376.006Z" fill="#D48A9B"/>
<path d="M460.038 369.937L397.657 408.721L396.308 420.523L403.052 420.86V412.43L443.852 389.501L394.622 450.533V459.974H402.715L402.04 449.521L459.026 384.78L466.107 385.455L526.135 453.568L527.483 465.039L535.576 465.376L534.227 453.568L486.683 394.222L518.379 416.139L519.053 425.581L525.46 425.918L524.786 414.453L464.421 367.913L460.038 369.937Z" fill="#D48A9B"/>
<path d="M381.668 303.601C387.559 296.271 392.497 288.224 396.364 279.653C400.656 270.155 405.363 259.19 405.721 255.944C406.424 249.875 423.593 237.736 442.475 237.061C454.79 236.619 473.975 227.009 485.847 220.37C497.014 214.021 509.433 210.185 522.236 209.13C536.124 208.084 549.183 210.809 542.608 226.924L454.305 333.857C454.305 333.857 378.999 347.127 374.355 325.792C374.095 324.717 373.736 323.668 373.28 322.659C372.402 320.643 372.17 315.381 381.668 303.601Z" fill="#6C63FF"/>
<path opacity="0.2" d="M388.3 305.722C394.229 298.313 399.215 290.196 403.143 281.557C407.147 272.677 411.397 262.723 411.734 259.709C412.381 253.914 428.833 242.316 446.901 241.67C458.682 241.248 477.038 232.074 488.39 225.73C499.084 219.674 510.969 216.02 523.219 215.024C536.503 214.027 549 216.633 542.734 232.024L472.689 334.587C472.689 334.587 386.283 346.846 381.71 326.565C381.439 325.488 381.079 324.436 380.635 323.418C379.835 321.409 379.722 316.484 388.3 305.722Z" fill="#DDA2A6"/>
<path opacity="0.1" d="M469.226 340.516C465.166 340.516 460.888 340.516 456.525 340.474L456.335 332.171L469.142 329.818L469.226 340.516Z" fill="black"/>
<g opacity="0.1">
<path opacity="0.1" d="M518.379 414.116L486.683 392.198L490.315 396.729L518.379 416.139L519.053 425.581L525.46 425.918L525.341 423.888L519.053 423.557L518.379 414.116Z" fill="black"/>
<path opacity="0.1" d="M403.052 410.407V412.43L440.867 391.18L443.852 387.478L403.052 410.407Z" fill="black"/>
<path opacity="0.1" d="M394.622 457.951V459.974H402.715L402.581 457.951H394.622Z" fill="black"/>
<path opacity="0.1" d="M403.052 418.837L396.533 418.514L396.308 420.523L403.052 420.86V418.837Z" fill="black"/>
<path opacity="0.1" d="M527.483 463.016L526.135 451.545L466.107 383.431L459.026 382.757L402.04 447.498L402.16 449.388L459.026 384.78L466.107 385.455L526.135 453.568L527.483 465.039L535.576 465.376L535.344 463.339L527.483 463.016Z" fill="black"/>
</g>
<path opacity="0.1" d="M462.061 274.075C462.061 274.075 477.853 285.624 470.94 285.758C464.028 285.891 462.061 274.075 462.061 274.075Z" fill="black"/>
<path d="M395.802 337.257C395.802 337.257 421.935 335.234 431.713 316.351C431.713 316.351 451.608 276.892 467.8 272.509C483.992 268.125 513.996 258.347 526.472 243.173C538.948 227.999 544.181 216.366 544.181 216.366C544.181 216.366 547.399 228.645 537.262 243.124C527.125 257.602 523.437 279.899 516.356 303.538C509.275 327.176 506.577 336.554 493.764 337.959C484.105 338.978 433.034 338.465 408.615 337.959C400.628 337.742 395.802 337.257 395.802 337.257Z" fill="#6C63FF"/>
<path opacity="0.2" d="M395.802 337.257C395.802 337.257 421.935 335.234 431.713 316.351C431.713 316.351 451.608 276.892 467.8 272.509C483.992 268.125 513.996 258.347 526.472 243.173C538.948 227.999 544.181 216.366 544.181 216.366C544.181 216.366 547.399 228.645 537.262 243.124C527.125 257.602 523.437 279.899 516.356 303.538C509.275 327.176 506.577 336.554 493.764 337.959C484.105 338.978 433.034 338.465 408.615 337.959C400.628 337.742 395.802 337.257 395.802 337.257Z" fill="#DDA2A6"/>
<path d="M402.377 337.257C402.377 337.257 427.358 335.297 436.701 317.011C436.701 317.011 455.724 278.81 471.193 274.567C486.662 270.324 515.351 260.847 527.28 246.158C539.208 231.469 544.203 220.202 544.203 220.202C544.203 220.202 547.258 232.144 537.592 246.158C527.926 260.173 524.378 281.746 517.606 304.605C510.834 327.464 508.263 336.604 496.012 337.91C486.781 338.894 437.965 338.395 414.622 337.91C406.993 337.763 402.377 337.257 402.377 337.257Z" fill="#6C63FF"/>
<path opacity="0.1" d="M382.146 327.422C382.146 327.422 395.802 332.649 403.558 329.782C411.313 326.916 430.533 318.486 430.533 318.486C430.533 318.486 398.162 320.538 382.146 327.422Z" fill="black"/>
<path d="M473.455 572.836C473.455 572.836 434.2 570.728 424.632 565.109C415.064 559.489 401.52 559.489 401.45 559.489L245.147 525.418L180.167 509.963L168.576 508.439L206.861 464.632L208.027 464.126L264.465 439.715C264.465 439.715 289.755 441.12 294.749 457.6C295.091 458.761 295.326 459.951 295.452 461.155C295.976 466.294 294.552 471.443 291.462 475.584C289.467 478.309 287.015 482.18 286.242 485.587C285.807 487.512 285.905 489.289 286.945 490.645C289.052 492.737 291.379 494.595 293.885 496.188C307.647 505.32 342.434 520.367 403.206 497.319C403.206 497.319 429.198 471.678 448.868 482.566C468.538 493.455 473.455 572.836 473.455 572.836Z" fill="#E1DEE5"/>
<path opacity="0.1" d="M286.27 485.587C285.835 487.512 285.933 489.289 286.973 490.645C289.08 492.737 291.407 494.595 293.913 496.188L175.601 505.046L208.027 464.126L264.465 439.715C264.465 439.715 289.755 441.12 294.749 457.6C295.091 458.761 295.326 459.951 295.452 461.155C295.976 466.294 294.552 471.443 291.462 475.584C289.495 478.309 287.043 482.18 286.27 485.587Z" fill="black"/>
<path d="M170.683 324.507L267.626 326.614V442.658L175.601 505.046L153.472 484.674L158.038 417.235L153.472 354.362L170.683 324.507Z" fill="#A36468"/>
<path d="M115.538 305.54L228.723 270.661C230.757 270.039 232.889 269.801 235.01 269.959L505.397 289.692C528.524 291.279 550.782 299.13 569.787 312.403C587.286 324.746 604.616 343.692 612.639 372.381C618.442 393.551 618.039 415.943 611.48 436.891L587.595 514.164C587.595 514.164 605.508 346.27 426.726 337.84L115.538 305.54Z" fill="#D9D6DF"/>
<path d="M175.601 322.048V508.439C175.601 508.439 144.586 504.076 139.071 498.021C134.547 493.054 108.337 479.054 96.9642 464.632C94.4704 461.471 92.6861 458.309 92.0047 455.169C88.1972 437.832 72.6863 396.863 72.6863 396.863L76.9012 356.821L94.4634 330.829L128.534 315.374H154.877L175.601 322.048Z" fill="#B8797D"/>
<path d="M126.427 324.507C126.427 324.507 76.0162 356.119 87.0452 406.986C87.9444 411.13 88.7242 415.296 89.237 419.511C91.2531 435.963 103.35 483.241 175.601 505.046V509.963L144.951 501.414L124.144 489.942L108.26 475.696L88.8436 452.008L79.8307 432.69L76.529 407.246L74.6252 378.198L79.2687 353.281L90.2204 337.067L103.568 326.691L126.427 324.507Z" fill="#D9D6DF"/>
<path opacity="0.1" d="M175.601 322.048V351.7C153.613 354.089 85.5348 367.857 97.6246 446.536L96.9573 464.604C94.4634 461.443 92.6791 458.281 91.9977 455.141C88.1902 437.804 72.6793 396.835 72.6793 396.835L76.8942 356.793L94.4564 330.801L128.527 315.346H154.87L175.601 322.048Z" fill="black"/>
<path opacity="0.1" d="M291.49 475.584C289.495 478.309 287.043 482.18 286.27 485.587C283.208 482.075 282.547 478.035 286.973 474.839C292.516 470.807 294.363 463.81 294.778 457.6C295.119 458.761 295.354 459.951 295.48 461.155C296.004 466.294 294.58 471.443 291.49 475.584Z" fill="white"/>
<path d="M575.316 494.509L561.968 539.819L531.761 569.323L493.827 577.051L434.818 566.513V356.821C434.818 356.821 445.004 350.147 446.058 350.147C447.112 350.147 475.562 354.714 475.562 354.714L539.98 400.916L542.65 402.834L571.452 445.686L575.316 494.509Z" fill="#B8797D"/>
<path d="M434.818 348.04V566.514L440.508 567.532V348.04H434.818Z" fill="#A36468"/>
<path opacity="0.1" d="M541.245 415.479C499.096 380.846 452.24 375.753 434.818 375.121V356.856C434.818 356.856 445.004 350.183 446.058 350.183C447.112 350.183 475.562 354.749 475.562 354.749L539.981 400.951L541.245 415.479Z" fill="black"/>
<path d="M425.918 333.99L161.902 305.188L132.229 303.615C122.982 303.08 113.735 304.659 105.189 308.231C96.6427 311.804 89.0229 317.276 82.9074 324.233C67.4527 342.006 55.7704 373.358 72.8338 427.189C72.8338 427.189 90.6278 496.967 176.802 511.958L427.196 568.698C432.746 569.956 438.225 571.508 443.634 573.271C466.367 580.739 543.387 600.085 579.671 534.319C592.105 511.769 595.828 485.475 591.037 460.164C582.305 413.87 549.338 335.311 425.918 333.99ZM555.267 531.312C521.407 586.471 451.636 570.054 430.659 563.577C425.524 561.989 420.326 560.606 415.064 559.482L183.763 509.998C104.073 496.911 87.6141 435.984 87.6141 435.984C74.1615 395.943 80.0413 370.105 90.9158 353.751C102.303 336.632 122.127 327.057 142.668 328.097L170.009 329.501L406.157 361.05C410.934 361.689 415.746 362.111 420.565 362.272C525.579 365.834 558.252 423.579 566.556 463.374C571.431 486.634 567.722 511.038 555.267 531.312Z" fill="#E1DEE5"/>
<path d="M2.97156 451.383C11.6192 457.171 24.7486 454.418 24.7486 454.418C24.7486 454.418 44.5518 445.039 50.4035 445.039C56.2552 445.039 70.4876 439.244 70.4876 439.244L70.0028 435.338L68.5557 423.571C77.5686 430.596 87.5861 428.173 92.5176 427.66C97.8143 427.112 126.117 410.287 128.843 409.177C129.581 408.882 130.445 407.92 131.323 406.677C133.146 403.889 134.748 400.962 136.114 397.924C137.884 396.364 139.177 395.114 139.085 394.84C138.994 394.566 139.788 392.514 140.821 390.203C144.839 389.501 148.302 388.012 149.405 387.112C150.311 386.387 151.037 385.462 151.524 384.408C152.012 383.355 152.248 382.203 152.215 381.043C152.215 381.043 179.83 353.189 176.198 341.605C172.566 330.021 185.126 329.74 185.126 329.74C185.126 329.74 204.368 321.465 207.044 316.505C208.695 313.45 223.131 306.741 233.991 302.034L235.326 301.458C239.541 310.696 260.953 303.566 265.168 299.681C269.629 295.543 282.73 293.611 282.73 293.611C282.73 293.611 283.292 239.52 287.472 232.65C289.46 229.383 289.937 218.705 289.888 208.393C289.888 208.027 289.888 207.69 289.888 207.297C295.747 206.152 309.684 203.503 316.154 202.864C320.257 202.457 324.535 199.9 327.815 197.413L328.202 197.898C329.329 198.36 330.547 198.56 331.763 198.481C332.84 198.601 333.929 198.398 334.89 197.898C337.404 196.493 346.607 193.76 349.951 192.383C353.295 191.006 349.396 181.073 346.888 179.141C344.38 177.209 342.673 174.73 344.078 173.627C345.483 172.524 340.734 169.763 337.945 169.208C335.157 168.653 326.79 164.796 326.79 164.796C326.79 164.796 323.72 158.474 318.704 158.474C313.689 158.474 306.987 153.507 306.987 153.507C306.713 151.302 301.409 151.028 301.409 151.028C301.409 151.028 281.332 135.573 277.981 137.512C274.63 139.451 265.435 134.477 265.435 134.477C265.435 134.477 254.146 135.742 251.49 133.662C251.466 132.979 251.219 132.323 250.788 131.794C250.191 129.925 247.275 127.368 244.465 125.239C244.68 123.92 244.788 122.586 244.789 121.249C244.789 120.673 244.789 120.097 244.725 119.528C244.725 119.43 244.725 119.338 244.725 119.24L245.126 115.355C245.153 114.078 245.486 112.825 246.095 111.702C246.566 111 247.261 110.403 247.788 109.707C247.911 109.544 248.024 109.372 248.125 109.195L248.21 109.047C248.287 108.912 248.357 108.774 248.42 108.633L248.484 108.492C248.639 108.11 248.759 107.715 248.842 107.312V107.221C248.877 107.038 248.905 106.855 248.926 106.666C248.923 106.64 248.923 106.614 248.926 106.588C249.041 104.983 248.826 103.372 248.294 101.854C247.458 99.2473 246.151 96.7324 246.011 94.0138C245.941 92.665 246.165 91.2881 245.87 89.9675C245.168 86.9538 242.098 85.0501 239.113 83.7856C234.989 82.0575 232.91 80.1678 229.601 77.5967C226.791 75.419 222.14 76.5148 218.6 76.7396C210.507 77.2595 202.52 79.6971 194.905 82.212C191.948 83.1955 188.934 84.3195 186.63 86.3216C185.078 87.641 184.013 89.4411 183.602 91.4357C183.522 91.8995 183.492 92.3704 183.511 92.8406C183.511 92.8828 183.511 92.9249 183.511 92.9601C183.511 93.1427 183.511 93.3183 183.574 93.4939C183.57 93.5524 183.57 93.6111 183.574 93.6696C183.609 93.884 183.66 94.0954 183.728 94.3018C184.052 95.3204 184.649 96.2407 184.993 97.2523C185.071 97.4822 185.134 97.7168 185.183 97.9547C185.183 97.9547 185.183 98.0039 185.183 98.025C185.232 98.2498 185.267 98.4676 185.295 98.7275C185.604 101.235 184.677 103.856 184.269 106.413C184.213 106.771 184.171 107.115 184.143 107.509C184.021 108.988 184.152 110.477 184.529 111.913C184.526 111.929 184.526 111.946 184.529 111.962C184.571 112.138 184.635 112.314 184.691 112.482C184.71 112.558 184.734 112.633 184.761 112.707C184.81 112.854 184.873 113.002 184.93 113.143L185.049 113.438C185.105 113.564 185.169 113.69 185.232 113.817C185.295 113.943 185.337 114.028 185.393 114.126C185.451 114.242 185.514 114.354 185.583 114.463C185.646 114.576 185.716 114.681 185.787 114.786C185.857 114.892 185.92 114.99 185.997 115.088C186.075 115.187 186.159 115.306 186.243 115.412L186.461 115.678L186.756 115.988L186.988 116.219L187.332 116.514C187.417 116.578 187.487 116.648 187.571 116.704C187.655 116.76 187.859 116.908 188.007 116.999L188.21 117.14C188.435 117.273 188.674 117.393 188.913 117.505C190.514 118.207 192.538 118.495 193.5 119.907C193.73 120.237 193.89 120.61 193.971 121.003C193.971 121.095 193.971 121.193 193.971 121.284V121.53C193.971 122.345 194.027 123.153 194.111 123.947C194.105 124.384 194.131 124.82 194.188 125.253C194.235 125.58 194.325 125.899 194.455 126.202C195.58 131.753 198.551 136.76 202.885 140.406C202.97 140.835 203.068 141.333 203.173 141.895C200.719 143.737 197.978 145.161 195.06 146.11C188.365 148.07 178.902 157.111 178.902 157.111C178.902 157.111 174.196 191.034 173.065 195.172C171.934 199.31 171.098 215.312 171.098 215.312C171.098 215.312 169.981 221.93 168.288 225.238C167.101 227.571 167.318 237.595 170.62 243.686C170.082 244.883 169.392 246.007 168.569 247.029C161.874 254.757 141.79 254.476 135.095 254.476C128.934 254.476 127.031 258.213 126.771 258.803C114.512 262.316 74.8219 273.612 70.1152 275.663C64.5375 278.1 61.4676 302.189 61.4676 302.189C61.4676 302.189 49.8134 342.174 50.3683 347.415C50.9233 352.655 46.4625 367.253 46.4625 367.253C46.4625 367.253 46.4625 383.755 44.5728 384.871C44.5565 384.887 44.5374 384.899 44.5166 384.907C42.5637 385.736 42.8377 393.737 42.8377 393.737C42.8377 393.737 44.2778 394.151 46.5187 394.72C45.9216 398.76 43.7088 404.415 42.0017 408.433C41.1306 407.33 40.2806 406.873 39.7748 408.152C38.3699 411.664 17.4639 436.49 12.1601 436.49C9.63816 436.49 5.46539 438.555 2.71866 441.344C-0.287981 444.414 -1.56651 448.355 2.97156 451.383ZM98.8961 307.675C122.605 309.881 147.986 305.996 147.986 305.996C147.986 305.996 146.033 312.916 144.361 315.676C142.689 318.437 137.94 334.159 137.94 337.454C137.94 340.748 130.41 369.171 128.183 370.548C127.248 371.131 126.413 372.578 125.752 374.06C125.166 375.43 124.673 376.838 124.277 378.275C124.31 378.992 124.373 379.673 124.467 380.319C122.802 381.844 121.039 383.445 119.472 384.864C119.472 384.864 109.497 390.414 106.125 393.449C102.753 396.484 87.1576 400.207 87.1576 400.207C83.2908 401.869 79.5363 403.782 75.9178 405.932C71.0777 408.847 66.2375 412.556 64.973 416.216C65.521 410.049 66.4131 402.623 67.0103 397.903L67.8954 397.867C75.7141 397.383 74.5479 389.922 74.1335 388.075C74.0773 387.808 74.0351 387.66 74.0351 387.66C79.6129 381.591 92.1593 336.379 90.4874 331.391C88.8155 326.403 91.8923 322.013 92.5457 322.013C93.199 322.013 94.1122 316.498 92.7213 313.464C91.3304 310.429 98.8961 307.675 98.8961 307.675ZM290.605 185.99L289.123 186.356V186.04C289.123 186.04 289.663 186.04 290.605 185.99ZM209.566 144.368C209.341 144.649 209.116 144.916 208.863 145.176L208.575 145.471C208.575 144.958 208.575 144.438 208.575 143.94C208.913 144.073 209.236 144.235 209.566 144.368ZM181.628 197.883L181.726 199.436C181.726 199.436 181.579 200.384 181.298 202.007L181.628 197.883ZM309.797 182.471L304.929 183.307C305.631 183.047 306.298 182.766 306.959 182.45C307.448 182.221 307.973 182.078 308.511 182.028C309.127 182.094 309.735 182.223 310.324 182.415C310.147 182.42 309.971 182.438 309.797 182.471Z" fill="url(#paint0_linear)"/>
<path d="M145.211 381.612C145.211 381.612 139.591 393.21 139.879 394.032C140.167 394.854 127.831 404.696 127.831 404.696L114.421 395.121L115.826 388.545C115.826 388.545 130.88 374.98 131.983 373.414C133.086 371.847 145.211 381.612 145.211 381.612Z" fill="#EFB7B9"/>
<path d="M68.7102 420.853C78.0182 429.887 88.9629 427.175 94.1684 426.606C99.3738 426.037 127.143 409.36 129.813 408.264C130.515 407.969 131.393 407.014 132.25 405.777C134.041 403.008 135.613 400.103 136.95 397.088C136.767 397.137 127.663 399.743 125.366 397.088C125.366 397.088 121.53 392.388 120.708 392.388C119.886 392.388 120.645 384.141 120.645 384.141C120.645 384.141 110.852 389.648 107.572 392.662C104.291 395.676 88.9559 399.364 88.9559 399.364C85.1634 401.014 81.4837 402.913 77.9409 405.047C70.6913 409.473 63.3854 415.718 68.7102 420.853Z" fill="#67647E"/>
<path opacity="0.1" d="M68.7102 420.853C78.0181 429.887 88.9629 427.175 94.1683 426.606C99.3737 426.037 127.143 409.36 129.812 408.264C130.515 407.969 131.393 407.014 132.25 405.777C129.012 403.846 107.853 417.298 101.931 419.764C96.0088 422.23 81.0248 420.853 72.5177 417.298C68.3027 415.521 72.5739 410.063 77.9268 405.047C70.6912 409.473 63.3853 415.718 68.7102 420.853Z" fill="black"/>
<path d="M69.8061 392.388C69.8061 392.388 65.9073 421.675 66.8978 425.51C67.8883 429.346 42.4302 412.374 42.4302 412.374C42.4302 412.374 51.3377 394.018 48.7526 389.803C46.1674 385.588 69.8061 392.388 69.8061 392.388Z" fill="#EFB7B9"/>
<path d="M45.4439 392.936C45.4439 392.936 61.3201 397.586 70.0731 397.038C77.7442 396.561 76.5992 389.157 76.1987 387.323C76.1425 387.063 76.1004 386.916 76.1004 386.916C81.5728 380.888 93.8944 335.999 92.2576 331.075C90.6208 326.151 93.5923 321.802 94.2948 321.802C94.9973 321.802 95.8332 316.323 94.4634 313.316C93.0935 310.31 100.491 307.57 100.491 307.57C123.757 309.755 148.667 305.898 148.667 305.898C148.667 305.898 146.749 312.768 145.106 315.508C143.462 318.248 138.783 333.843 138.783 337.13C138.783 340.418 131.393 368.609 129.201 369.979C128.288 370.555 127.466 371.988 126.82 373.491C126.243 374.862 125.759 376.27 125.373 377.706C126.195 396.048 146.995 388.946 150.009 386.466C150.438 386.109 150.829 385.709 151.175 385.272C152.232 383.886 152.785 382.181 152.742 380.439C152.742 380.439 179.844 352.796 176.282 341.296C172.72 329.796 185.042 329.53 185.042 329.53C185.042 329.53 203.932 321.317 206.559 316.386C208.182 313.358 222.344 306.706 233.008 302.027C239.688 299.098 244.992 296.955 244.992 296.955L240.553 281.037L237.04 268.483L230.451 266.011L209.376 258.087L171.568 252.783L168.105 253.232L131.372 257.988C131.372 257.988 77.7442 273.331 72.2648 275.733C66.7854 278.136 63.7788 302.055 63.7788 302.055C63.7788 302.055 52.2861 341.746 52.8481 346.972C53.4101 352.199 49.0125 366.642 49.0125 366.642C49.0125 366.642 49.0125 383.017 47.1509 384.127C47.1326 384.132 47.113 384.132 47.0947 384.127C45.1699 385.026 45.4439 392.936 45.4439 392.936Z" fill="#444053"/>
<path opacity="0.1" d="M100.463 307.535C123.729 309.719 148.639 305.863 148.639 305.863C150.283 300.685 173.289 286.453 173.289 286.453C154.414 281.803 100.463 307.535 100.463 307.535Z" fill="black"/>
<path d="M125.373 377.608C126.195 395.95 146.995 388.848 150.009 386.368C150.438 386.011 150.829 385.611 151.175 385.174C143.904 387.85 131.014 389.922 126.82 373.421C126.244 374.782 125.76 376.181 125.373 377.608Z" fill="#444053"/>
<path d="M45.4439 392.936C45.4439 392.936 61.3201 397.586 70.0731 397.039C77.7443 396.561 76.5992 389.157 76.1988 387.323C68.1623 387.07 54.3233 386.319 47.1369 384.141C47.1186 384.146 47.099 384.146 47.0807 384.141C45.1699 385.026 45.4439 392.936 45.4439 392.936Z" fill="#444053"/>
<path opacity="0.1" d="M125.373 377.608C126.195 395.95 146.995 388.848 150.009 386.368C150.438 386.011 150.829 385.611 151.175 385.174C143.904 387.85 131.014 389.922 126.82 373.421C126.244 374.782 125.76 376.181 125.373 377.608Z" fill="black"/>
<path opacity="0.1" d="M45.4439 392.936C45.4439 392.936 61.3201 397.586 70.0731 397.039C77.7443 396.561 76.5992 389.157 76.1988 387.323C68.1623 387.07 54.3233 386.319 47.1369 384.141C47.1186 384.146 47.099 384.146 47.0807 384.141C45.1699 385.026 45.4439 392.936 45.4439 392.936Z" fill="black"/>
<path d="M6.29426 450.147C14.7803 455.893 27.6499 453.153 27.6499 453.153C27.6499 453.153 47.0806 443.852 52.834 443.852C58.5874 443.852 72.5177 438.099 72.5177 438.099L72.047 434.228L69.785 415.654C69.785 415.654 48.4645 415.107 47.6075 413.189C47.6075 413.189 43.779 403.761 42.4091 407.246C41.0393 410.73 20.5126 435.345 15.3072 435.345C12.8274 435.345 8.73189 437.396 6.04137 440.164C3.112 443.234 1.85455 447.14 6.29426 450.147Z" fill="#67647E"/>
<path opacity="0.1" d="M79.929 288.371C79.929 288.371 97.7229 299.611 92.7985 302.055C87.8741 304.5 79.929 288.371 79.929 288.371Z" fill="black"/>
<path opacity="0.1" d="M72.5177 309.993C72.5177 309.993 87.846 324.549 82.0996 324.935C76.3533 325.322 72.5177 309.993 72.5177 309.993Z" fill="black"/>
<path opacity="0.1" d="M56.1146 356.224C56.1146 356.224 63.8982 370.857 60.9688 373.393C58.0394 375.929 56.1146 356.224 56.1146 356.224Z" fill="black"/>
<path opacity="0.1" d="M141.797 371.04C139.057 373.772 167.789 362.006 161.228 361.458C154.667 360.91 141.797 371.04 141.797 371.04Z" fill="black"/>
<path d="M199.274 165.738L200.195 165.604C203.595 165.084 215.937 163.146 227.009 160.743C229.706 160.153 232.319 159.542 234.736 158.91C243.215 156.69 248.905 154.294 245.273 152.327C240.468 149.721 237.939 144.986 236.605 140.912C236.478 140.511 236.359 140.125 236.246 139.739C235.657 137.676 235.287 135.557 235.143 133.416C235.143 133.416 204.234 122.465 210.233 133.416C213.191 138.79 211.203 143.174 208.414 146.244C206.496 148.273 204.24 149.954 201.747 151.21L199.274 165.738Z" fill="#EFB7B9"/>
<path opacity="0.1" d="M232.397 157.252C232.397 157.252 221.332 165.19 210.029 158.622C198.726 152.053 183.946 216.654 183.946 216.654L168.618 254.427C168.618 254.427 158.692 262.639 171.048 266.2C183.405 269.762 210.816 262.639 217.778 273.043C224.739 283.446 237.918 285.083 239.267 285.083C240.616 285.083 245.828 245.934 245.828 245.934L247.184 189.271L232.397 157.252Z" fill="black"/>
<path d="M171.568 264.009C183.925 267.563 211.343 260.447 218.305 270.851C221.238 275.09 225.334 278.391 230.1 280.355C233.176 281.737 236.458 282.605 239.815 282.927C239.991 282.927 240.25 282.224 240.553 280.967C242.477 273.043 246.376 243.777 246.376 243.777L247.725 187.114L234.722 158.91L232.945 155.06C231.202 156.222 229.312 157.146 227.325 157.807C223.047 159.254 216.858 160.069 210.591 156.402C207.276 154.477 203.658 158.678 200.209 165.576C191.891 182.183 184.508 214.434 184.508 214.434L169.166 252.256C168.801 252.569 168.454 252.902 168.126 253.254C165.948 255.53 161.867 261.213 171.568 264.009Z" fill="#F3F5F9"/>
<path opacity="0.1" d="M230.465 265.912C229.86 270.693 229.737 275.522 230.1 280.327C230.542 287.164 231.401 293.967 232.671 300.699C232.75 301.122 232.862 301.538 233.008 301.943C239.689 299.014 244.992 296.871 244.992 296.871L240.553 280.953C242.477 273.029 246.376 243.763 246.376 243.763L247.725 187.1L234.722 158.91C243.201 156.69 248.891 154.294 245.259 152.327C239.991 149.468 237.455 144.045 236.232 139.739C234.005 142.843 231.397 145.657 228.47 148.112L228.301 148.253L227.318 157.807L227.016 160.743L226.383 166.834C226.383 166.834 229.397 238.824 231.582 242.934C233.767 247.044 232.678 254.975 230.767 264.283C230.648 264.809 230.577 265.35 230.465 265.912Z" fill="black"/>
<path d="M231.849 263.187C229.938 272.495 231.575 287.823 233.766 299.59C235.958 311.356 259.225 303.699 263.608 299.59C267.992 295.48 280.847 293.569 280.847 293.569C280.847 293.569 281.395 239.92 285.505 233.078C287.45 229.833 287.921 219.239 287.872 209.004C287.837 199.815 287.38 190.915 287.212 187.929C287.169 187.227 287.148 186.84 287.148 186.84C287.148 186.84 304.935 156.732 304.661 154.526C304.387 152.32 299.189 152.067 299.189 152.067C299.189 152.067 279.519 136.739 276.197 138.65C272.874 140.561 263.875 135.643 263.875 135.643C263.875 135.643 252.432 136.943 250.064 134.73C249.92 134.607 249.807 134.452 249.734 134.278C249.661 134.103 249.629 133.914 249.643 133.725C249.91 130.213 237.981 122.739 237.609 122.486C247.669 131.534 231.406 145.478 229.559 147.009L229.39 147.15L227.472 165.731C227.472 165.731 230.486 237.722 232.671 241.831C234.855 245.941 233.766 253.879 231.849 263.187Z" fill="#67647E"/>
<path d="M232.91 186.356C233.666 186.356 234.279 185.742 234.279 184.986C234.279 184.229 233.666 183.616 232.91 183.616C232.153 183.616 231.54 184.229 231.54 184.986C231.54 185.742 232.153 186.356 232.91 186.356Z" fill="#444053"/>
<path opacity="0.1" d="M230.107 148.112L238.424 156.156L250.612 135.784C250.468 135.661 250.355 135.506 250.282 135.332C250.209 135.157 250.177 134.968 250.191 134.779C250.458 131.267 238.522 123.792 238.157 123.539C248.217 132.637 231.982 146.581 230.107 148.112Z" fill="black"/>
<path opacity="0.1" d="M235.649 230.149C236.406 230.149 237.019 229.535 237.019 228.779C237.019 228.022 236.406 227.409 235.649 227.409C234.893 227.409 234.279 228.022 234.279 228.779C234.279 229.535 234.893 230.149 235.649 230.149Z" fill="black"/>
<path d="M235.649 229.601C236.406 229.601 237.019 228.988 237.019 228.231C237.019 227.474 236.406 226.861 235.649 226.861C234.893 226.861 234.279 227.474 234.279 228.231C234.279 228.988 234.893 229.601 235.649 229.601Z" fill="#444053"/>
<path d="M229.559 147.016L237.876 155.06L250.064 134.688C249.92 134.565 249.807 134.41 249.734 134.236C249.661 134.061 249.629 133.872 249.643 133.683C249.91 130.171 237.981 122.696 237.609 122.443C247.669 131.541 231.406 145.478 229.559 147.016Z" fill="#67647E"/>
<path d="M222.128 223.669L238.787 224.05C239.446 224.065 239.993 223.542 240.008 222.883L240.874 185.029C240.889 184.369 240.367 183.823 239.707 183.808L223.049 183.427C222.389 183.412 221.843 183.934 221.827 184.593L220.962 222.447C220.947 223.107 221.469 223.654 222.128 223.669Z" fill="#D1D9EC"/>
<path d="M222.226 224.559L238.884 224.94C239.544 224.955 240.091 224.432 240.106 223.773L240.971 185.919C240.986 185.259 240.464 184.713 239.805 184.698L223.146 184.317C222.487 184.302 221.94 184.824 221.925 185.483L221.059 223.337C221.044 223.997 221.566 224.544 222.226 224.559Z" fill="#DFE6F5"/>
<path d="M231.512 199.288C233.164 199.288 234.504 197.949 234.504 196.296C234.504 194.643 233.164 193.303 231.512 193.303C229.859 193.303 228.519 194.643 228.519 196.296C228.519 197.949 229.859 199.288 231.512 199.288Z" fill="white"/>
<path opacity="0.1" d="M128.379 260.721C135.222 263.735 180.118 255.804 186.686 253.879C193.254 251.954 202.843 237.181 198.186 226.482C193.528 215.783 199.822 205.407 199.822 205.407C199.822 205.407 209.657 184.333 211.87 180.223C214.083 176.113 218.628 164.164 219.26 162.162C219.286 161.937 219.265 161.709 219.198 161.493C219.132 161.277 219.021 161.076 218.874 160.905C217.089 158.214 210.205 153.423 210.205 153.423C208.273 154.126 208.034 148.583 208.098 144.516C208.14 142.24 208.273 140.427 208.273 140.427C208.273 140.427 207.367 141.347 205.885 142.605C205.344 143.061 204.726 143.567 204.037 144.087C201.47 146.143 198.566 147.738 195.453 148.801C188.885 150.747 179.577 159.717 179.577 159.717L182.316 201.754C182.316 201.754 175.994 241.29 169.447 248.954C162.9 256.618 143.167 256.344 136.598 256.344C130.03 256.344 128.379 260.721 128.379 260.721Z" fill="black"/>
<path d="M127.832 259.084C134.674 262.091 179.57 254.167 186.138 252.235C192.706 250.303 202.295 235.537 197.638 224.838C192.98 214.139 199.274 203.763 199.274 203.763C199.274 203.763 209.109 182.689 211.322 178.579C213.535 174.47 218.08 162.52 218.712 160.518C218.737 160.293 218.716 160.066 218.65 159.849C218.583 159.633 218.473 159.433 218.326 159.261C216.528 156.577 209.678 151.8 209.678 151.8C207.746 152.503 207.508 146.967 207.571 142.9C207.613 140.617 207.746 138.804 207.746 138.804C207.746 138.804 206.84 139.725 205.358 140.989C204.817 141.439 204.199 141.944 203.51 142.464C200.931 144.525 198.012 146.12 194.884 147.178C188.316 149.124 179.008 158.095 179.008 158.095L181.747 200.131C181.747 200.131 175.425 239.667 168.878 247.332C162.331 254.996 142.605 254.722 136.03 254.722C129.454 254.722 127.832 259.084 127.832 259.084Z" fill="#67647E"/>
<path opacity="0.1" d="M202.288 139.858C202.288 139.858 202.548 141.298 202.991 143.518C204.466 151.035 207.978 167.445 210.514 166.813C212.334 166.356 215.432 163.139 217.792 160.357C216.015 157.645 209.144 152.854 209.144 152.854C207.213 153.557 206.974 148.021 207.037 143.954L204.824 142.043L202.288 139.858Z" fill="black"/>
<path d="M202.836 138.783C202.836 138.783 203.096 140.223 203.539 142.443C205.014 149.96 208.526 166.37 211.062 165.738C212.882 165.281 215.98 162.064 218.34 159.282C216.528 156.577 209.678 151.8 209.678 151.8C207.746 152.503 207.508 146.967 207.571 142.9L205.358 140.989L202.836 138.783Z" fill="#67647E"/>
<path d="M185.316 219.387C185.316 219.387 199.007 216.654 202.836 210.634C206.665 204.613 232.741 199.394 229.531 205.716C226.32 212.039 202.836 232.614 202.836 232.614L192.643 247.205L179.029 243.749L173.289 232.586L185.316 219.387Z" fill="#EFB7B9"/>
<path opacity="0.1" d="M217.701 235.01C217.701 235.01 204.445 239.927 202.45 246.503C200.455 253.078 217.701 235.01 217.701 235.01Z" fill="black"/>
<path opacity="0.1" d="M225.828 242.66C225.828 242.66 227.037 249.495 210.423 248.982L225.828 242.66Z" fill="black"/>
<path opacity="0.1" d="M297.545 155.06L303.573 154.512C303.573 154.512 310.141 159.429 315.065 159.429C319.99 159.429 323.003 165.752 323.003 165.752C323.003 165.752 331.216 169.587 333.955 170.135C336.695 170.683 341.345 173.416 339.976 174.512C338.606 175.608 340.25 178.073 342.715 179.984C345.181 181.895 349.038 191.758 345.722 193.128C342.406 194.498 333.407 197.23 330.97 198.6C328.532 199.97 325.497 198.6 325.497 198.6C325.497 198.6 310.998 179.71 303.601 183.272C296.204 186.833 286.074 186.812 286.074 186.812L278.136 170.121L297.545 155.06Z" fill="black"/>
<path d="M171.568 245.133C172.861 247.058 174.533 248.406 176.675 248.68C182.033 249.307 187.463 248.804 192.615 247.205C192.615 247.205 165.042 238.445 191.589 217.146H184.494L182.106 216.246L183.187 210.577L184.747 159.443L179.001 158.074C179.001 158.074 174.371 191.744 173.268 195.846C172.165 199.949 171.337 215.832 171.337 215.832C171.337 215.832 170.241 222.4 168.597 225.667C167.353 228.154 167.698 239.288 171.568 245.133Z" fill="#67647E"/>
<path opacity="0.1" d="M172.685 245.133C173.971 247.058 175.65 248.406 177.792 248.68C183.15 249.307 188.58 248.804 193.732 247.205C193.732 247.205 166.159 238.445 192.706 217.132H185.618L183.251 216.232C179.296 223.152 173.184 235.438 172.685 245.133Z" fill="black"/>
<path d="M171.568 245.133C172.861 247.058 174.533 248.406 176.675 248.68C182.033 249.307 187.463 248.804 192.615 247.205C192.615 247.205 165.042 238.445 191.589 217.146H184.494L182.106 216.247C178.228 223.152 172.088 235.438 171.568 245.133Z" fill="#67647E"/>
<path opacity="0.1" d="M208.407 146.265C213.084 148.387 218.304 149.012 223.35 148.054C228.396 147.095 233.023 144.601 236.598 140.912C236.471 140.511 236.352 140.125 236.239 139.739C235.65 137.676 235.28 135.557 235.136 133.416C235.136 133.416 204.227 122.465 210.226 133.416C213.184 138.811 211.196 143.195 208.407 146.265Z" fill="black"/>
<path d="M193.802 122.486V122.731C193.802 123.539 193.858 124.34 193.943 125.127C194.027 125.914 194.139 126.63 194.28 127.368C195.354 132.735 198.166 137.599 202.281 141.209C206.395 144.819 211.584 146.973 217.046 147.339C222.507 147.705 227.937 146.263 232.497 143.235C237.057 140.206 240.493 135.761 242.274 130.585C242.442 130.101 242.59 129.616 242.723 129.124C243.324 126.963 243.627 124.729 243.622 122.486C243.622 121.917 243.622 121.341 243.559 120.779C243.101 114.348 240.166 108.345 235.373 104.033C230.58 99.7203 224.302 97.4344 217.858 97.6555C211.415 97.8765 205.308 100.587 200.821 105.218C196.335 109.849 193.819 116.038 193.802 122.486Z" fill="#EFB7B9"/>
<path opacity="0.1" d="M193.802 122.731C193.938 123.522 193.986 124.326 193.943 125.127C193.934 125.561 193.958 125.996 194.013 126.427C194.06 126.751 194.149 127.067 194.28 127.368C195.284 129.728 198.572 131.26 200.743 129.735C201.578 129.05 202.242 128.18 202.682 127.192C204.986 122.914 208.182 117.997 213.219 117.912C215.368 117.87 217.385 118.776 219.464 119.317C221.543 119.858 224.002 119.907 225.548 118.495C226.742 117.407 227.304 115.552 228.898 115.173C230.493 114.793 231.968 116.255 232.699 117.688C233.429 119.121 234.012 120.807 235.509 121.551C236.169 121.874 236.914 121.973 237.616 122.324C240.595 123.954 239.225 129.665 242.316 130.592C242.413 130.622 242.511 130.646 242.611 130.663C242.66 130.157 242.716 129.637 242.765 129.131C243.046 126.349 243.325 123.567 243.601 120.786C243.143 114.355 240.208 108.352 235.415 104.04C230.622 99.7273 224.344 97.4414 217.9 97.6625C211.457 97.8836 205.35 100.594 200.864 105.225C196.377 109.856 193.861 116.045 193.844 122.493L193.802 122.731Z" fill="black"/>
<path d="M238.052 85.303C240.981 86.5464 244.03 88.4571 244.683 91.4427C244.971 92.7563 244.753 94.1192 244.824 95.4539C244.964 98.1514 246.229 100.652 247.065 103.237C247.901 105.823 248.182 108.857 246.538 111.035C246.025 111.738 245.343 112.292 244.88 113.009C244.275 114.138 243.948 115.395 243.924 116.676L242.569 130.15C239.098 129.496 240.644 123.476 237.567 121.804C236.928 121.453 236.162 121.355 235.495 121.024C234.012 120.322 233.436 118.601 232.685 117.168C231.933 115.735 230.507 114.266 228.884 114.653C227.261 115.039 226.728 116.894 225.54 117.976C223.988 119.381 221.522 119.324 219.45 118.798C217.377 118.271 215.354 117.393 213.212 117.393C208.168 117.477 204.965 122.394 202.674 126.672C202.234 127.663 201.567 128.536 200.729 129.222C198.284 130.936 194.406 128.773 194.006 125.907C193.767 124.298 194.273 122.507 193.345 121.144C192.418 119.781 190.409 119.493 188.842 118.762C184.838 116.922 183.602 111.927 184.262 107.74C184.747 104.72 185.948 101.615 184.965 98.7064C184.621 97.7018 184.037 96.7886 183.721 95.7841C182.843 92.9741 184.276 89.8551 186.531 87.853C188.786 85.8509 191.744 84.748 194.652 83.7786C202.119 81.2707 209.959 78.8611 217.904 78.3413C221.382 78.1165 225.941 77.0277 228.702 79.1983C231.982 81.7132 234.005 83.5889 238.052 85.303Z" fill="#585268"/>
<path opacity="0.1" d="M231.54 164.726C232.296 164.726 232.909 164.113 232.909 163.356C232.909 162.6 232.296 161.986 231.54 161.986C230.783 161.986 230.17 162.6 230.17 163.356C230.17 164.113 230.783 164.726 231.54 164.726Z" fill="black"/>
<path d="M231.54 164.178C232.296 164.178 232.909 163.565 232.909 162.808C232.909 162.052 232.296 161.438 231.54 161.438C230.783 161.438 230.17 162.052 230.17 162.808C230.17 163.565 230.783 164.178 231.54 164.178Z" fill="#444053"/>
<path opacity="0.1" d="M240.3 250.682C241.056 250.682 241.67 250.069 241.67 249.313C241.67 248.556 241.056 247.943 240.3 247.943C239.543 247.943 238.93 248.556 238.93 249.313C238.93 250.069 239.543 250.682 240.3 250.682Z" fill="black"/>
<path d="M240.3 250.134C241.056 250.134 241.67 249.521 241.67 248.765C241.67 248.008 241.056 247.395 240.3 247.395C239.543 247.395 238.93 248.008 238.93 248.765C238.93 249.521 239.543 250.134 240.3 250.134Z" fill="#444053"/>
<path opacity="0.1" d="M235.649 273.401C236.406 273.401 237.019 272.788 237.019 272.031C237.019 271.274 236.406 270.661 235.649 270.661C234.893 270.661 234.279 271.274 234.279 272.031C234.279 272.788 234.893 273.401 235.649 273.401Z" fill="black"/>
<path d="M235.649 272.853C236.406 272.853 237.019 272.24 237.019 271.483C237.019 270.727 236.406 270.113 235.649 270.113C234.893 270.113 234.279 270.727 234.279 271.483C234.279 272.24 234.893 272.853 235.649 272.853Z" fill="#444053"/>
<path opacity="0.1" d="M188.604 184.986C188.604 184.986 185.59 205.428 188.604 208.99C191.617 212.551 188.604 184.986 188.604 184.986Z" fill="black"/>
<path opacity="0.1" d="M278.114 222.948C278.114 222.948 283.861 235.333 278.114 247.205C272.368 259.077 268.807 263.903 270.724 271.483C272.642 279.063 278.114 222.948 278.114 222.948Z" fill="black"/>
<path opacity="0.1" d="M6.29426 450.147C14.7803 455.893 27.6499 453.153 27.6499 453.153C27.6499 453.153 47.0806 443.852 52.834 443.852C58.5874 443.852 72.5177 438.099 72.5177 438.099L72.047 434.228C66.378 435.317 53.4803 437.923 51.991 439.195C50.0732 440.839 26.5329 448.777 26.5329 448.777C26.5329 448.777 10.5022 446.775 6.04137 440.185C3.112 443.234 1.85455 447.14 6.29426 450.147Z" fill="black"/>
<g opacity="0.1">
<path opacity="0.1" d="M244.824 93.2621C244.824 92.9671 244.824 92.672 244.824 92.37C244.824 92.7142 244.824 93.0725 244.824 93.3956C244.838 93.3535 244.824 93.3113 244.824 93.2621Z" fill="black"/>
<path opacity="0.1" d="M188.849 116.55C190.416 117.252 192.362 117.533 193.352 118.924C194.343 120.315 193.774 122.078 194.013 123.687C194.427 126.553 198.291 128.724 200.735 127.003C201.574 126.316 202.241 125.443 202.681 124.453C204.979 120.174 208.182 115.257 213.219 115.173C215.368 115.138 217.384 116.044 219.464 116.578C221.543 117.112 224.002 117.168 225.554 115.756C226.742 114.674 227.304 112.812 228.898 112.433C230.493 112.054 231.961 113.515 232.699 114.948C233.436 116.381 234.012 118.067 235.509 118.812C236.169 119.135 236.914 119.233 237.581 119.584C240.658 121.263 239.112 127.312 242.583 127.93C243.051 123.434 243.503 118.943 243.938 114.456C243.967 113.19 244.295 111.948 244.894 110.831C245.357 110.129 246.039 109.539 246.552 108.85C247.172 108 247.56 107.002 247.676 105.956C247.967 107.733 247.564 109.553 246.552 111.042C246.039 111.745 245.357 112.3 244.894 113.016C244.285 114.142 243.953 115.396 243.924 116.676C243.456 121.167 243.004 125.659 242.569 130.15C239.098 129.496 240.644 123.476 237.567 121.804C236.928 121.453 236.162 121.355 235.495 121.024C234.012 120.322 233.436 118.601 232.685 117.168C231.933 115.735 230.507 114.267 228.884 114.653C227.261 115.039 226.727 116.894 225.54 117.976C223.988 119.381 221.522 119.324 219.45 118.798C217.377 118.271 215.354 117.393 213.205 117.393C208.168 117.477 204.964 122.394 202.667 126.672C202.226 127.663 201.56 128.536 200.721 129.222C198.277 130.937 194.399 128.773 193.999 125.907C193.76 124.298 194.266 122.507 193.338 121.144C192.411 119.781 190.402 119.493 188.835 118.762C185.175 117.076 183.827 112.756 184.136 108.829C184.417 112.04 185.864 115.173 188.849 116.55Z" fill="black"/>
<path opacity="0.1" d="M183.728 93.5642C184.044 94.5688 184.628 95.489 184.972 96.4866C185.334 97.6513 185.44 98.8809 185.281 100.09C185.226 99.6127 185.123 99.1419 184.972 98.6853C184.628 97.6808 184.044 96.7676 183.728 95.763C183.451 94.8358 183.396 93.8564 183.567 92.9039C183.608 93.127 183.662 93.3475 183.728 93.5642Z" fill="black"/>
</g>
<path d="M338.156 319.027L281.732 311.967C281.335 311.918 280.959 311.759 280.646 311.508C280.334 311.257 280.098 310.923 279.964 310.546C279.831 310.168 279.805 309.76 279.89 309.368C279.976 308.977 280.168 308.617 280.447 308.329L304.114 283.741C304.343 283.502 304.625 283.32 304.937 283.208C305.249 283.095 305.583 283.057 305.912 283.095L349.052 287.928C349.38 287.965 349.695 288.077 349.973 288.255C350.251 288.432 350.485 288.672 350.656 288.954C350.827 289.236 350.93 289.554 350.959 289.883C350.988 290.212 350.941 290.543 350.822 290.851L340.439 317.679C340.262 318.125 339.942 318.5 339.528 318.744C339.115 318.988 338.632 319.088 338.156 319.027Z" fill="#746D83"/>
<path opacity="0.1" d="M338.156 319.027L281.732 311.967C281.335 311.918 280.959 311.759 280.646 311.508C280.334 311.257 280.098 310.923 279.964 310.546C279.831 310.168 279.805 309.76 279.89 309.368C279.976 308.977 280.168 308.617 280.447 308.329L304.114 283.741C304.343 283.502 304.625 283.32 304.937 283.208C305.249 283.095 305.583 283.057 305.912 283.095L349.052 287.928C349.38 287.965 349.695 288.077 349.973 288.255C350.251 288.432 350.485 288.672 350.656 288.954C350.827 289.236 350.93 289.554 350.959 289.883C350.988 290.212 350.941 290.543 350.822 290.851L340.439 317.679C340.262 318.125 339.942 318.5 339.528 318.744C339.115 318.988 338.632 319.088 338.156 319.027Z" fill="black"/>
<path d="M337.517 318.395L281.1 311.307C280.702 311.256 280.327 311.096 280.015 310.844C279.703 310.592 279.467 310.258 279.334 309.88C279.2 309.502 279.175 309.094 279.26 308.703C279.344 308.311 279.537 307.95 279.814 307.661L303.481 283.074C303.712 282.835 303.993 282.653 304.305 282.539C304.617 282.426 304.95 282.386 305.28 282.421L348.412 287.254C348.741 287.291 349.057 287.403 349.336 287.581C349.615 287.759 349.849 287.999 350.021 288.282C350.193 288.565 350.297 288.883 350.326 289.213C350.356 289.543 350.309 289.875 350.19 290.183L339.8 317.011C339.628 317.463 339.31 317.845 338.896 318.096C338.483 318.346 337.997 318.452 337.517 318.395Z" fill="#746D83"/>
<path d="M303.896 292.705L320.84 294.068L345.005 292.494H344.591L322.203 290.331C317.074 288.448 320.629 277.363 320.629 277.363L303.481 278.234L302.112 278.304C296.049 292.494 303.896 292.705 303.896 292.705Z" fill="#D1D9EC"/>
<path opacity="0.1" d="M303.896 292.705L320.84 294.068L345.005 292.494H344.591L320.158 293.366L303.79 291.588C299.14 290.366 301.802 282.301 303.481 278.241L302.112 278.311C296.049 292.494 303.896 292.705 303.896 292.705Z" fill="black"/>
<path d="M274.216 191.947L279.4 266.306L280.103 276.063C280.173 277.14 280.653 278.149 281.445 278.883C282.237 279.616 283.28 280.017 284.36 280.004H285.933L363.98 279.534C364.284 279.53 364.584 279.463 364.862 279.338C365.139 279.212 365.387 279.03 365.591 278.804C365.794 278.577 365.948 278.311 366.043 278.022C366.138 277.733 366.172 277.427 366.143 277.124L365.441 267.359L359.947 201.972C359.862 201.119 359.534 200.309 359.002 199.637C358.47 198.965 357.758 198.459 356.948 198.179L282.561 187.023C280.032 186.145 277.454 186.454 275.846 187.796C275.253 188.3 274.794 188.943 274.509 189.667C274.225 190.391 274.124 191.175 274.216 191.947Z" fill="#4C4C56"/>
<path d="M279.4 266.306L280.103 276.063C280.173 277.14 280.653 278.149 281.445 278.883C282.237 279.616 283.28 280.017 284.36 280.004H285.933L363.98 279.534C364.284 279.53 364.584 279.463 364.862 279.338C365.139 279.212 365.387 279.03 365.591 278.804C365.794 278.577 365.948 278.311 366.043 278.022C366.138 277.733 366.172 277.427 366.143 277.124L365.441 267.359L279.4 266.306Z" fill="#DFE6F5"/>
<path d="M331.721 276.492C332.299 276.492 332.768 275.555 332.768 274.398C332.768 273.242 332.299 272.305 331.721 272.305C331.143 272.305 330.675 273.242 330.675 274.398C330.675 275.555 331.143 276.492 331.721 276.492Z" fill="white"/>
<path d="M328.687 302.224C328.687 302.224 307.345 294.166 301.592 300.025C301.592 300.025 300.65 301.809 304.521 302.224L320.158 303.481C320.158 303.481 326.593 304.107 328.687 302.224Z" fill="#D1D9EC"/>
<path d="M328.118 300.13C323.903 298.416 311.307 293.984 303.229 298.887C303.229 298.887 312.164 297.897 317.075 300.735C321.985 303.573 328.687 302.224 328.687 302.224L328.785 302.048C328.879 301.881 328.936 301.695 328.953 301.504C328.97 301.313 328.946 301.12 328.883 300.939C328.82 300.758 328.719 300.592 328.587 300.453C328.455 300.313 328.295 300.203 328.118 300.13Z" fill="#DFE6F5"/>
<path d="M274.216 191.948L280.074 276.077C280.145 277.154 280.625 278.163 281.417 278.897C282.209 279.63 283.252 280.031 284.332 280.018H285.905C284.827 278.989 283.908 277.806 283.179 276.506C283.179 276.506 277.426 191.969 277.005 189.875C276.82 189.092 276.418 188.376 275.846 187.81C275.255 188.313 274.797 188.953 274.513 189.675C274.229 190.396 274.127 191.177 274.216 191.948Z" fill="#DFE6F5"/>
<path opacity="0.1" d="M274.216 191.948L280.074 276.077C280.145 277.154 280.625 278.163 281.417 278.897C282.209 279.63 283.252 280.031 284.332 280.018H285.905C284.827 278.989 283.908 277.806 283.179 276.506C283.179 276.506 277.426 191.969 277.005 189.875C276.82 189.092 276.418 188.376 275.846 187.81C275.255 188.313 274.797 188.953 274.513 189.675C274.229 190.396 274.127 191.177 274.216 191.948Z" fill="black"/>
<path opacity="0.1" d="M264.149 215.27C270.471 213.865 285.224 209.538 285.224 209.538L287.865 209.004C287.83 199.815 287.373 190.915 287.205 187.929H287.141C287.141 187.929 274.546 192.039 271.539 194.252C268.533 196.464 259.218 195.888 259.218 195.888C259.218 195.888 244.718 196.668 232.685 210.107C220.651 223.545 257.855 216.654 264.149 215.27Z" fill="black"/>
<path d="M325.68 190.845C326.243 191.102 326.731 191.498 327.099 191.995C327.467 192.492 327.704 193.074 327.786 193.688C327.868 194.301 327.793 194.925 327.569 195.501C327.344 196.078 326.977 196.588 326.502 196.984C323.165 199.745 318.297 203.047 313.646 203.51C305.919 204.29 287.233 208.034 285.378 208.428C285.278 208.445 285.18 208.468 285.083 208.498C283.545 208.948 270.085 212.889 264.149 214.188C257.827 215.593 220.595 222.414 232.671 209.004C243.756 196.654 256.928 194.954 258.958 194.793C259.119 194.779 259.281 194.779 259.442 194.793C260.847 194.856 268.8 195.13 271.546 193.142C272.977 192.244 274.492 191.489 276.07 190.887C282.023 188.424 288.231 186.633 294.581 185.548L307.457 183.3C308.191 183.174 308.945 183.272 309.621 183.581L325.68 190.845Z" fill="#EFB7B9"/>
<path d="M298.641 155.06L304.662 154.512C304.662 154.512 311.237 159.429 316.161 159.429C321.086 159.429 324.099 165.752 324.099 165.752C324.099 165.752 332.311 169.587 335.051 170.135C337.791 170.683 342.441 173.416 341.071 174.512C339.702 175.608 341.345 178.073 343.811 179.984C346.277 181.895 350.133 191.758 346.818 193.128C343.502 194.498 334.503 197.23 332.066 198.6C329.628 199.97 326.593 198.6 326.593 198.6C326.593 198.6 312.066 179.696 304.669 183.258C297.271 186.819 287.149 186.812 287.149 186.812L279.21 170.121L298.641 155.06Z" fill="#67647E"/>
<path d="M659.094 499.279C658.42 500.201 657.883 501.216 657.5 502.292C657.394 502.552 657.303 502.854 657.205 503.142C657.026 503.06 656.84 502.994 656.65 502.945C655.831 502.739 654.984 502.667 654.142 502.735C654.142 502.405 654.142 502.067 654.191 501.702C654.289 498 653.854 492.844 650.327 495.028C646.934 497.136 649.351 500.648 651.535 502.896L652.097 503.451C650.109 504.856 649.73 508.179 649.393 511.628C649.056 515.077 646.133 518.85 644.194 520.992C643.998 521.217 643.815 521.407 643.647 521.589C642.864 520.967 641.959 520.515 640.991 520.265C640.023 520.014 639.013 519.97 638.027 520.135L637.767 519.187C636.193 513.504 632.927 503.662 628.761 501.505C628.936 501.288 629.119 501.063 629.309 500.803C631.079 498.492 633.067 495.05 630.124 494.171C627.18 493.293 626.92 497.157 627.082 500.044C627.082 500.409 627.11 500.754 627.166 501.077C626.577 501.104 625.999 501.251 625.469 501.509C624.938 501.768 624.466 502.132 624.082 502.58L623.633 502.039C621.244 499.229 616.861 494.754 615.54 498.133C614.304 501.281 618.16 505.369 620.872 507.736L621.04 507.884C619.214 515.267 627.166 521.287 631.444 523.922L631.992 524.259C626.091 531.214 622.452 544.252 622.452 544.252L638.975 547.202C638.975 547.202 649.927 537.747 648.529 528.867H648.641C659.586 526.675 662.08 515 660.373 508.074L660.569 507.989C662.562 507.171 664.307 505.85 665.634 504.154C668.662 499.904 662.234 495.099 659.094 499.279Z" fill="#6C63FF"/>
<path opacity="0.1" d="M659.094 499.279C658.42 500.201 657.883 501.216 657.5 502.292C657.394 502.552 657.303 502.854 657.205 503.142C657.026 503.06 656.84 502.994 656.65 502.945C655.831 502.739 654.984 502.667 654.142 502.735C654.142 502.405 654.142 502.067 654.191 501.702C654.289 498 653.854 492.844 650.327 495.028C646.934 497.136 649.351 500.648 651.535 502.896L652.097 503.451C650.109 504.856 649.73 508.179 649.393 511.628C649.056 515.077 646.133 518.85 644.194 520.992C643.998 521.217 643.815 521.407 643.647 521.589C642.864 520.967 641.959 520.515 640.991 520.265C640.023 520.014 639.013 519.97 638.027 520.135L637.767 519.187C636.193 513.504 632.927 503.662 628.761 501.505C628.936 501.288 629.119 501.063 629.309 500.803C631.079 498.492 633.067 495.05 630.124 494.171C627.18 493.293 626.92 497.157 627.082 500.044C627.082 500.409 627.11 500.754 627.166 501.077C626.577 501.104 625.999 501.251 625.469 501.509C624.938 501.768 624.466 502.132 624.082 502.58L623.633 502.039C621.244 499.229 616.861 494.754 615.54 498.133C614.304 501.281 618.16 505.369 620.872 507.736L621.04 507.884C619.214 515.267 627.166 521.287 631.444 523.922L631.992 524.259C626.091 531.214 622.452 544.252 622.452 544.252L638.975 547.202C638.975 547.202 649.927 537.747 648.529 528.867H648.641C659.586 526.675 662.08 515 660.373 508.074L660.569 507.989C662.562 507.171 664.307 505.85 665.634 504.154C668.662 499.904 662.234 495.099 659.094 499.279Z" fill="black"/>
<path d="M626.197 504.041L624.265 509.696C624.265 509.696 623.197 508.938 621.841 507.743C619.13 505.376 615.273 501.288 616.509 498.14C617.83 494.761 622.214 499.222 624.602 502.046C625.565 503.17 626.197 504.041 626.197 504.041Z" fill="#6C63FF"/>
<path d="M630.292 500.81C629.701 501.589 629.068 502.334 628.396 503.044C628.227 502.058 628.112 501.064 628.051 500.065C627.89 497.178 628.192 493.328 631.093 494.192C633.994 495.057 632.049 498.499 630.292 500.81Z" fill="#6C63FF"/>
<path d="M655.195 501.702C655.132 503.564 654.949 505.053 654.949 505.053C654.099 504.388 653.294 503.668 652.54 502.896C650.355 500.634 647.939 497.129 651.332 495.028C654.879 492.844 655.294 498 655.195 501.702Z" fill="#6C63FF"/>
<path d="M666.604 504.14C665.276 505.836 663.531 507.157 661.539 507.975C660.987 508.219 660.419 508.425 659.839 508.594L657.563 505.397C657.802 504.341 658.116 503.303 658.504 502.292C658.888 501.216 659.425 500.201 660.099 499.278C663.246 495.099 669.674 499.904 666.604 504.14Z" fill="#6C63FF"/>
<path opacity="0.1" d="M624.602 502.046C625.565 503.17 626.197 504.041 626.197 504.041L624.265 509.696C624.265 509.696 623.197 508.938 621.841 507.743C622.14 505.933 622.886 504.226 624.012 502.777C624.209 502.51 624.412 502.271 624.602 502.046Z" fill="black"/>
<path opacity="0.1" d="M630.292 500.81C629.701 501.589 629.068 502.334 628.395 503.044C628.226 502.058 628.112 501.064 628.051 500.065C628.857 500.076 629.64 500.336 630.292 500.81Z" fill="black"/>
<path d="M639.776 523.261L634.971 525.369C634.095 524.93 633.241 524.447 632.414 523.922C627.363 520.817 617.205 512.998 623.984 503.781C630.763 494.565 636.467 511.094 638.736 519.18C639.425 521.603 639.776 523.261 639.776 523.261Z" fill="#6C63FF"/>
<path opacity="0.1" d="M652.54 502.896C653.243 502.177 654.191 501.751 655.195 501.702C655.132 503.564 654.95 505.053 654.95 505.053C654.099 504.388 653.295 503.668 652.54 502.896Z" fill="black"/>
<path opacity="0.1" d="M661.539 507.961C660.986 508.205 660.419 508.411 659.839 508.579L657.563 505.383C657.802 504.327 658.116 503.289 658.504 502.278C659.972 503.149 661.054 505.285 661.539 507.961Z" fill="black"/>
<path d="M649.61 528.853C649.344 528.909 649.077 528.959 648.803 529.001C632.695 531.445 643.492 522.756 643.492 522.756C643.492 522.756 644.194 522.088 645.199 520.992C647.138 518.885 650.067 515.098 650.397 511.628C650.903 506.409 651.493 501.512 657.654 502.945C663.702 504.364 664.855 525.804 649.61 528.853Z" fill="#6C63FF"/>
<path d="M649.309 568.958H618.533V577.051H649.309V568.958Z" fill="#D4DFEC"/>
<path d="M653.854 542.657H613.643V570.897H653.854V542.657Z" fill="#D4DFEC"/>
<path opacity="0.1" d="M649.309 568.958H618.533V577.051H649.309V568.958Z" fill="black"/>
<path opacity="0.1" d="M653.854 542.657H613.643V570.897H653.854V542.657Z" fill="black"/>
<path d="M651.332 568.958H620.556V577.051H651.332V568.958Z" fill="#D4DFEC"/>
<path opacity="0.1" d="M638.722 519.201C639.425 521.618 639.762 523.275 639.762 523.275L634.957 525.383C634.081 524.944 633.227 524.461 632.4 523.936C634.296 521.54 636.418 519.742 638.722 519.201Z" fill="black"/>
<path opacity="0.1" d="M649.61 528.853C649.344 528.909 649.077 528.959 648.803 529.001C632.695 531.445 643.492 522.756 643.492 522.756C643.492 522.756 644.194 522.088 645.199 520.992C648.205 523.416 649.449 526.113 649.61 528.853Z" fill="black"/>
<path d="M623.422 544.259C623.422 544.259 632.442 511.944 645.087 521.92C657.731 531.895 639.944 547.209 639.944 547.209L623.422 544.259Z" fill="#6C63FF"/>
<path opacity="0.1" d="M627.974 509.858C628.533 509.858 628.986 509.405 628.986 508.846C628.986 508.288 628.533 507.835 627.974 507.835C627.415 507.835 626.962 508.288 626.962 508.846C626.962 509.405 627.415 509.858 627.974 509.858Z" fill="black"/>
<path opacity="0.1" d="M627.89 514.579C628.448 514.579 628.901 514.126 628.901 513.567C628.901 513.008 628.448 512.555 627.89 512.555C627.331 512.555 626.878 513.008 626.878 513.567C626.878 514.126 627.331 514.579 627.89 514.579Z" fill="black"/>
<path opacity="0.1" d="M657.226 510.785C657.784 510.785 658.237 510.332 658.237 509.774C658.237 509.215 657.784 508.762 657.226 508.762C656.667 508.762 656.214 509.215 656.214 509.774C656.214 510.332 656.667 510.785 657.226 510.785Z" fill="black"/>
<path opacity="0.1" d="M633.622 534.986C634.181 534.986 634.633 534.533 634.633 533.974C634.633 533.416 634.181 532.963 633.622 532.963C633.063 532.963 632.61 533.416 632.61 533.974C632.61 534.533 633.063 534.986 633.622 534.986Z" fill="black"/>
<path opacity="0.1" d="M655.118 518.625C655.677 518.625 656.13 518.172 656.13 517.613C656.13 517.055 655.677 516.602 655.118 516.602C654.559 516.602 654.106 517.055 654.106 517.613C654.106 518.172 654.559 518.625 655.118 518.625Z" fill="black"/>
<path opacity="0.1" d="M644.665 529.085C645.224 529.085 645.677 528.632 645.677 528.073C645.677 527.515 645.224 527.062 644.665 527.062C644.106 527.062 643.654 527.515 643.654 528.073C643.654 528.632 644.106 529.085 644.665 529.085Z" fill="black"/>
<path opacity="0.1" d="M631.43 511.881C631.989 511.881 632.442 511.428 632.442 510.869C632.442 510.311 631.989 509.858 631.43 509.858C630.872 509.858 630.419 510.311 630.419 510.869C630.419 511.428 630.872 511.881 631.43 511.881Z" fill="black"/>
<path opacity="0.1" d="M654.444 513.82C655.002 513.82 655.455 513.367 655.455 512.808C655.455 512.25 655.002 511.797 654.444 511.797C653.885 511.797 653.432 512.25 653.432 512.808C653.432 513.367 653.885 513.82 654.444 513.82Z" fill="black"/>
<path opacity="0.1" d="M650.987 521.66C651.546 521.66 651.999 521.207 651.999 520.648C651.999 520.089 651.546 519.637 650.987 519.637C650.429 519.637 649.976 520.089 649.976 520.648C649.976 521.207 650.429 521.66 650.987 521.66Z" fill="black"/>
<path opacity="0.1" d="M640.366 534.227C640.925 534.227 641.377 533.774 641.377 533.216C641.377 532.657 640.925 532.204 640.366 532.204C639.807 532.204 639.354 532.657 639.354 533.216C639.354 533.774 639.807 534.227 640.366 534.227Z" fill="black"/>
<path opacity="0.1" d="M638.174 529.254C638.733 529.254 639.186 528.801 639.186 528.242C639.186 527.683 638.733 527.23 638.174 527.23C637.616 527.23 637.163 527.683 637.163 528.242C637.163 528.801 637.616 529.254 638.174 529.254Z" fill="black"/>
<path opacity="0.1" d="M632.948 518.035C633.506 518.035 633.959 517.582 633.959 517.023C633.959 516.465 633.506 516.012 632.948 516.012C632.389 516.012 631.936 516.465 631.936 517.023C631.936 517.582 632.389 518.035 632.948 518.035Z" fill="black"/>
<path opacity="0.1" d="M651.332 568.958H620.556V571.916H651.332V568.958Z" fill="black"/>
<path d="M655.877 542.657H615.667V570.897H655.877V542.657Z" fill="#D4DFEC"/>
<path opacity="0.1" d="M641.715 538.779C642.273 538.779 642.726 538.326 642.726 537.768C642.726 537.209 642.273 536.756 641.715 536.756C641.156 536.756 640.703 537.209 640.703 537.768C640.703 538.326 641.156 538.779 641.715 538.779Z" fill="black"/>
<path opacity="0.1" d="M635.645 540.044C636.204 540.044 636.657 539.591 636.657 539.032C636.657 538.474 636.204 538.021 635.645 538.021C635.086 538.021 634.634 538.474 634.634 539.032C634.634 539.591 635.086 540.044 635.645 540.044Z" fill="black"/>
</g>
<defs>
<linearGradient id="paint0_linear" x1="175.601" y1="455.071" x2="175.601" y2="76.2268" gradientUnits="userSpaceOnUse">
<stop stop-color="#808080" stop-opacity="0.25"/>
<stop offset="0.54" stop-color="#808080" stop-opacity="0.12"/>
<stop offset="1" stop-color="#808080" stop-opacity="0.1"/>
</linearGradient>
<clipPath id="clip0">
<rect width="700" height="581.786" fill="white"/>
</clipPath>
</defs>
</svg>
