<svg width="131" height="91" viewBox="0 0 131 91" fill="none" xmlns="http://www.w3.org/2000/svg">
<path d="M44.3711 25.3398H29.0078V67H16.668V25.3398H1.58594V15.8125H44.3711V25.3398ZM65.8164 15.8125L77.2422 51.4258L88.6328 15.8125H104.875V67H92.5V55.0469L93.6953 30.5781L81.3203 67H73.1641L60.7539 30.543L61.9492 55.0469V67H49.6094V15.8125H65.8164Z" fill="black"/>
<path d="M119.535 55.5039C121.41 55.5039 122.969 56.0664 124.211 57.1914C125.453 58.293 126.074 59.7109 126.074 61.4453C126.074 63.1797 125.453 64.6094 124.211 65.7344C122.969 66.8359 121.41 67.3867 119.535 67.3867C117.637 67.3867 116.066 66.8242 114.824 65.6992C113.605 64.5742 112.996 63.1562 112.996 61.4453C112.996 59.7344 113.605 58.3164 114.824 57.1914C116.066 56.0664 117.637 55.5039 119.535 55.5039Z" fill="#50EB19"/>
<path d="M18.7812 84.5312C18.7812 83.6289 18.9023 82.7734 19.1445 81.9648C19.3867 81.1523 19.7422 80.4277 20.2109 79.791C20.6797 79.1504 21.1758 78.7012 21.6992 78.4434L21.9805 79.2754C21.4297 79.6934 20.9824 80.332 20.6387 81.1914C20.2988 82.0469 20.1133 83.0273 20.082 84.1328L20.0762 84.6367C20.0762 85.8203 20.2422 86.877 20.5742 87.8066C20.9102 88.7324 21.3789 89.4375 21.9805 89.9219L21.6992 90.7129C21.1758 90.4551 20.6777 90.0039 20.2051 89.3594C19.7363 88.7188 19.3809 87.9961 19.1387 87.1914C18.9004 86.3828 18.7812 85.4961 18.7812 84.5312ZM29.2461 80.6641H26.5859V88H25.1152V80.6641H22.4785V79.4688H29.2461V80.6641ZM31.6367 82.3516C32.1016 81.8125 32.6895 81.543 33.4004 81.543C34.752 81.543 35.4375 82.3145 35.457 83.8574V88H34.0332V83.9102C34.0332 83.4727 33.9375 83.1641 33.7461 82.9844C33.5586 82.8008 33.2812 82.709 32.9141 82.709C32.3438 82.709 31.918 82.9629 31.6367 83.4707V88H30.2129V79H31.6367V82.3516ZM39.6934 88.1172C38.791 88.1172 38.0586 87.834 37.4961 87.2676C36.9375 86.6973 36.6582 85.9395 36.6582 84.9941V84.8184C36.6582 84.1855 36.7793 83.6211 37.0215 83.125C37.2676 82.625 37.6113 82.2363 38.0527 81.959C38.4941 81.6816 38.9863 81.543 39.5293 81.543C40.3926 81.543 41.0586 81.8184 41.5273 82.3691C42 82.9199 42.2363 83.6992 42.2363 84.707V85.2812H38.0938C38.1367 85.8047 38.3105 86.2188 38.6152 86.5234C38.9238 86.8281 39.3105 86.9805 39.7754 86.9805C40.4277 86.9805 40.959 86.7168 41.3691 86.1895L42.1367 86.9219C41.8828 87.3008 41.543 87.5957 41.1172 87.8066C40.6953 88.0137 40.2207 88.1172 39.6934 88.1172ZM39.5234 82.6855C39.1328 82.6855 38.8164 82.8223 38.5742 83.0957C38.3359 83.3691 38.1836 83.75 38.1172 84.2383H40.8301V84.1328C40.7988 83.6562 40.6719 83.2969 40.4492 83.0547C40.2266 82.8086 39.918 82.6855 39.5234 82.6855ZM48.3945 79.4688L50.8555 86.0078L53.3105 79.4688H55.2266V88H53.75V85.1875L53.8965 81.4258L51.377 88H50.3164L47.8027 81.4316L47.9492 85.1875V88H46.4727V79.4688H48.3945ZM60.6875 87.3789C60.2695 87.8711 59.6758 88.1172 58.9062 88.1172C58.2188 88.1172 57.6973 87.916 57.3418 87.5137C56.9902 87.1113 56.8145 86.5293 56.8145 85.7676V81.6602H58.2383V85.75C58.2383 86.5547 58.5723 86.957 59.2402 86.957C59.9316 86.957 60.3984 86.709 60.6406 86.2129V81.6602H62.0645V88H60.7227L60.6875 87.3789ZM65.0293 88H63.6055V79H65.0293V88ZM68.8027 85.9609L70.0918 81.6602H71.6094L69.0898 88.9609C68.7031 90.0273 68.0469 90.5605 67.1211 90.5605C66.9141 90.5605 66.6855 90.5254 66.4355 90.4551V89.3535L66.7051 89.3711C67.0645 89.3711 67.334 89.3047 67.5137 89.1719C67.6973 89.043 67.8418 88.8242 67.9473 88.5156L68.1523 87.9707L65.9258 81.6602H67.4609L68.8027 85.9609ZM72.0723 84.7715C72.0723 84.1504 72.1953 83.5918 72.4414 83.0957C72.6875 82.5957 73.0332 82.2129 73.4785 81.9473C73.9238 81.6777 74.4355 81.543 75.0137 81.543C75.8691 81.543 76.5625 81.8184 77.0938 82.3691C77.6289 82.9199 77.918 83.6504 77.9609 84.5605L77.9668 84.8945C77.9668 85.5195 77.8457 86.0781 77.6035 86.5703C77.3652 87.0625 77.0215 87.4434 76.5723 87.7129C76.127 87.9824 75.6113 88.1172 75.0254 88.1172C74.1309 88.1172 73.4141 87.8203 72.875 87.2266C72.3398 86.6289 72.0723 85.834 72.0723 84.8418V84.7715ZM73.4961 84.8945C73.4961 85.5469 73.6309 86.0586 73.9004 86.4297C74.1699 86.7969 74.5449 86.9805 75.0254 86.9805C75.5059 86.9805 75.8789 86.793 76.1445 86.418C76.4141 86.043 76.5488 85.4941 76.5488 84.7715C76.5488 84.1309 76.4102 83.623 76.1328 83.248C75.8594 82.873 75.4863 82.6855 75.0137 82.6855C74.5488 82.6855 74.1797 82.8711 73.9062 83.2422C73.6328 83.6094 73.4961 84.1602 73.4961 84.8945ZM80.4922 81.6602L80.5332 82.3926C81.002 81.8262 81.6172 81.543 82.3789 81.543C83.6992 81.543 84.3711 82.2988 84.3945 83.8105V88H82.9707V83.8926C82.9707 83.4902 82.8828 83.1934 82.707 83.002C82.5352 82.8066 82.252 82.709 81.8574 82.709C81.2832 82.709 80.8555 82.9688 80.5742 83.4883V88H79.1504V81.6602H80.4922ZM85.584 84.7715C85.584 84.1504 85.707 83.5918 85.9531 83.0957C86.1992 82.5957 86.5449 82.2129 86.9902 81.9473C87.4355 81.6777 87.9473 81.543 88.5254 81.543C89.3809 81.543 90.0742 81.8184 90.6055 82.3691C91.1406 82.9199 91.4297 83.6504 91.4727 84.5605L91.4785 84.8945C91.4785 85.5195 91.3574 86.0781 91.1152 86.5703C90.877 87.0625 90.5332 87.4434 90.084 87.7129C89.6387 87.9824 89.123 88.1172 88.5371 88.1172C87.6426 88.1172 86.9258 87.8203 86.3867 87.2266C85.8516 86.6289 85.584 85.834 85.584 84.8418V84.7715ZM87.0078 84.8945C87.0078 85.5469 87.1426 86.0586 87.4121 86.4297C87.6816 86.7969 88.0566 86.9805 88.5371 86.9805C89.0176 86.9805 89.3906 86.793 89.6562 86.418C89.9258 86.043 90.0605 85.4941 90.0605 84.7715C90.0605 84.1309 89.9219 83.623 89.6445 83.248C89.3711 82.873 88.998 82.6855 88.5254 82.6855C88.0605 82.6855 87.6914 82.8711 87.418 83.2422C87.1445 83.6094 87.0078 84.1602 87.0078 84.8945ZM92.3223 82L91.5957 81.5488C91.9473 81.0371 92.1289 80.4961 92.1406 79.9258V79H93.3887V79.8086C93.3887 80.2109 93.2852 80.6172 93.0781 81.0273C92.875 81.4336 92.623 81.7578 92.3223 82ZM96.8223 86.2773C96.8223 86.0234 96.7168 85.8301 96.5059 85.6973C96.2988 85.5645 95.9531 85.4473 95.4688 85.3457C94.9844 85.2441 94.5801 85.1152 94.2559 84.959C93.5449 84.6152 93.1895 84.1172 93.1895 83.4648C93.1895 82.918 93.4199 82.4609 93.8809 82.0938C94.3418 81.7266 94.9277 81.543 95.6387 81.543C96.3965 81.543 97.0078 81.7305 97.4727 82.1055C97.9414 82.4805 98.1758 82.9668 98.1758 83.5645H96.752C96.752 83.291 96.6504 83.0645 96.4473 82.8848C96.2441 82.7012 95.9746 82.6094 95.6387 82.6094C95.3262 82.6094 95.0703 82.6816 94.8711 82.8262C94.6758 82.9707 94.5781 83.1641 94.5781 83.4062C94.5781 83.625 94.6699 83.7949 94.8535 83.916C95.0371 84.0371 95.4082 84.1602 95.9668 84.2852C96.5254 84.4062 96.9629 84.5527 97.2793 84.7246C97.5996 84.8926 97.8359 85.0957 97.9883 85.334C98.1445 85.5723 98.2227 85.8613 98.2227 86.2012C98.2227 86.7715 97.9863 87.2344 97.5137 87.5898C97.041 87.9414 96.4219 88.1172 95.6562 88.1172C95.1367 88.1172 94.6738 88.0234 94.2676 87.8359C93.8613 87.6484 93.5449 87.3906 93.3184 87.0625C93.0918 86.7344 92.9785 86.3809 92.9785 86.002H94.3613C94.3809 86.3379 94.5078 86.5977 94.7422 86.7812C94.9766 86.9609 95.2871 87.0508 95.6738 87.0508C96.0488 87.0508 96.334 86.9805 96.5293 86.8398C96.7246 86.6953 96.8223 86.5078 96.8223 86.2773ZM102.213 84.625C102.213 85.4922 102.094 86.3301 101.855 87.1387C101.617 87.9434 101.256 88.6758 100.771 89.3359C100.287 90 99.7812 90.459 99.2539 90.7129L98.9727 89.9219C99.5586 89.4688 100.021 88.7773 100.361 87.8477C100.705 86.9141 100.877 85.8496 100.877 84.6543V84.5195C100.877 83.4336 100.729 82.4453 100.432 81.5547C100.135 80.6602 99.709 79.9434 99.1543 79.4043L98.9727 79.2402L99.2539 78.4434C99.7539 78.6855 100.238 79.1152 100.707 79.7324C101.176 80.3496 101.535 81.041 101.785 81.8066C102.035 82.5684 102.176 83.3555 102.207 84.168L102.213 84.625Z" fill="#626262"/>
</svg>
