<svg width="1208" height="347" viewBox="0 0 1208 347" fill="none" xmlns="http://www.w3.org/2000/svg">
<circle cx="30" cy="27" r="10" fill="#44D810"/>
<circle cx="436" cy="27" r="10" fill="#44D810"/>
<circle cx="468" cy="27" r="10" fill="#E8FC00"/>
<circle cx="500" cy="27" r="10" fill="#FF0E0E"/>
<rect x="1.5" y="5.5" width="522" height="298" rx="18.5" stroke="black" stroke-width="3"/>
<path d="M65.5 305L36 344.5" stroke="black" stroke-width="5"/>
<path d="M66 305L95 345" stroke="black" stroke-width="5"/>
<path d="M470.5 305L441 344.5" stroke="black" stroke-width="5"/>
<path d="M471 305L500 345" stroke="black" stroke-width="5"/>
<path d="M3.5 43H523" stroke="black"/>
<path d="M42.2852 101V75.4062H51.25C54.3555 75.4062 56.7109 76.0039 58.3164 77.1992C59.9219 78.3828 60.7246 80.123 60.7246 82.4199C60.7246 83.6738 60.4023 84.7812 59.7578 85.7422C59.1133 86.6914 58.2168 87.3887 57.0684 87.834C58.3809 88.1621 59.4121 88.8242 60.1621 89.8203C60.9238 90.8164 61.3047 92.0352 61.3047 93.4766C61.3047 95.9375 60.5195 97.8008 58.9492 99.0664C57.3789 100.332 55.1406 100.977 52.2344 101H42.2852ZM47.5586 89.8555V96.7637H52.0762C53.3184 96.7637 54.2852 96.4707 54.9766 95.8848C55.6797 95.2871 56.0312 94.4668 56.0312 93.4238C56.0312 91.0801 54.8184 89.8906 52.3926 89.8555H47.5586ZM47.5586 86.1289H51.4609C54.1211 86.082 55.4512 85.0215 55.4512 82.9473C55.4512 81.7871 55.1113 80.9551 54.4316 80.4512C53.7637 79.9355 52.7031 79.6777 51.25 79.6777H47.5586V86.1289ZM76.334 99.0664C75.0801 100.59 73.3457 101.352 71.1309 101.352C69.0918 101.352 67.5332 100.766 66.4551 99.5938C65.3887 98.4219 64.8438 96.7051 64.8203 94.4434V81.9805H69.9004V94.2676C69.9004 96.248 70.8027 97.2383 72.6074 97.2383C74.3301 97.2383 75.5137 96.6406 76.1582 95.4453V81.9805H81.2559V101H76.4746L76.334 99.0664ZM90.4492 101H85.3516V81.9805H90.4492V101ZM85.0527 77.0586C85.0527 76.2969 85.3047 75.6699 85.8086 75.1777C86.3242 74.6855 87.0215 74.4395 87.9004 74.4395C88.7676 74.4395 89.459 74.6855 89.9746 75.1777C90.4902 75.6699 90.748 76.2969 90.748 77.0586C90.748 77.832 90.4844 78.4648 89.957 78.957C89.4414 79.4492 88.7559 79.6953 87.9004 79.6953C87.0449 79.6953 86.3535 79.4492 85.8262 78.957C85.3105 78.4648 85.0527 77.832 85.0527 77.0586ZM100.012 101H94.9141V74H100.012V101ZM103.422 91.3496C103.422 88.3848 104.084 86.0234 105.408 84.2656C106.744 82.5078 108.566 81.6289 110.875 81.6289C112.727 81.6289 114.256 82.3203 115.463 83.7031V74H120.561V101H115.973L115.727 98.9785C114.461 100.561 112.832 101.352 110.84 101.352C108.602 101.352 106.803 100.473 105.443 98.7148C104.096 96.9453 103.422 94.4902 103.422 91.3496ZM108.502 91.7188C108.502 93.5 108.812 94.8652 109.434 95.8145C110.055 96.7637 110.957 97.2383 112.141 97.2383C113.711 97.2383 114.818 96.5762 115.463 95.252V87.7461C114.83 86.4219 113.734 85.7598 112.176 85.7598C109.727 85.7598 108.502 87.7461 108.502 91.7188Z" fill="black"/>
<path d="M47.4062 130.625L50.957 122.938H54.8008L49.1992 133.812V140H45.625V133.812L40.0234 122.938H43.8789L47.4062 130.625ZM54.8359 133.543C54.8359 132.285 55.0781 131.164 55.5625 130.18C56.0469 129.195 56.7422 128.434 57.6484 127.895C58.5625 127.355 59.6211 127.086 60.8242 127.086C62.5352 127.086 63.9297 127.609 65.0078 128.656C66.0938 129.703 66.6992 131.125 66.8242 132.922L66.8477 133.789C66.8477 135.734 66.3047 137.297 65.2188 138.477C64.1328 139.648 62.6758 140.234 60.8477 140.234C59.0195 140.234 57.5586 139.648 56.4648 138.477C55.3789 137.305 54.8359 135.711 54.8359 133.695V133.543ZM58.2227 133.789C58.2227 134.992 58.4492 135.914 58.9023 136.555C59.3555 137.188 60.0039 137.504 60.8477 137.504C61.668 137.504 62.3086 137.191 62.7695 136.566C63.2305 135.934 63.4609 134.926 63.4609 133.543C63.4609 132.363 63.2305 131.449 62.7695 130.801C62.3086 130.152 61.6602 129.828 60.8242 129.828C59.9961 129.828 59.3555 130.152 58.9023 130.801C58.4492 131.441 58.2227 132.438 58.2227 133.789ZM76.5273 138.711C75.6914 139.727 74.5352 140.234 73.0586 140.234C71.6992 140.234 70.6602 139.844 69.9414 139.062C69.2305 138.281 68.8672 137.137 68.8516 135.629V127.32H72.2383V135.512C72.2383 136.832 72.8398 137.492 74.043 137.492C75.1914 137.492 75.9805 137.094 76.4102 136.297V127.32H79.8086V140H76.6211L76.5273 138.711ZM89.4883 130.496C89.0273 130.434 88.6211 130.402 88.2695 130.402C86.9883 130.402 86.1484 130.836 85.75 131.703V140H82.3633V127.32H85.5625L85.6562 128.832C86.3359 127.668 87.2773 127.086 88.4805 127.086C88.8555 127.086 89.207 127.137 89.5352 127.238L89.4883 130.496ZM110.617 135.078L112.914 122.938H116.418L112.633 140H109.094L106.316 128.586L103.539 140H100L96.2148 122.938H99.7188L102.027 135.055L104.84 122.938H107.816L110.617 135.078ZM123.566 140.234C121.707 140.234 120.191 139.664 119.02 138.523C117.855 137.383 117.273 135.863 117.273 133.965V133.637C117.273 132.363 117.52 131.227 118.012 130.227C118.504 129.219 119.199 128.445 120.098 127.906C121.004 127.359 122.035 127.086 123.191 127.086C124.926 127.086 126.289 127.633 127.281 128.727C128.281 129.82 128.781 131.371 128.781 133.379V134.762H120.707C120.816 135.59 121.145 136.254 121.691 136.754C122.246 137.254 122.945 137.504 123.789 137.504C125.094 137.504 126.113 137.031 126.848 136.086L128.512 137.949C128.004 138.668 127.316 139.23 126.449 139.637C125.582 140.035 124.621 140.234 123.566 140.234ZM123.18 129.828C122.508 129.828 121.961 130.055 121.539 130.508C121.125 130.961 120.859 131.609 120.742 132.453H125.453V132.184C125.438 131.434 125.234 130.855 124.844 130.449C124.453 130.035 123.898 129.828 123.18 129.828ZM142.141 133.777C142.141 135.809 141.707 137.395 140.84 138.535C139.973 139.668 138.762 140.234 137.207 140.234C135.832 140.234 134.734 139.707 133.914 138.652L133.762 140H130.715V122H134.102V128.457C134.883 127.543 135.91 127.086 137.184 127.086C138.73 127.086 139.941 127.656 140.816 128.797C141.699 129.93 142.141 131.527 142.141 133.59V133.777ZM138.754 133.531C138.754 132.25 138.551 131.316 138.145 130.73C137.738 130.137 137.133 129.84 136.328 129.84C135.25 129.84 134.508 130.281 134.102 131.164V136.168C134.516 137.059 135.266 137.504 136.352 137.504C137.445 137.504 138.164 136.965 138.508 135.887C138.672 135.371 138.754 134.586 138.754 133.531ZM151.105 136.496C151.105 136.082 150.898 135.758 150.484 135.523C150.078 135.281 149.422 135.066 148.516 134.879C145.5 134.246 143.992 132.965 143.992 131.035C143.992 129.91 144.457 128.973 145.387 128.223C146.324 127.465 147.547 127.086 149.055 127.086C150.664 127.086 151.949 127.465 152.91 128.223C153.879 128.98 154.363 129.965 154.363 131.176H150.977C150.977 130.691 150.82 130.293 150.508 129.98C150.195 129.66 149.707 129.5 149.043 129.5C148.473 129.5 148.031 129.629 147.719 129.887C147.406 130.145 147.25 130.473 147.25 130.871C147.25 131.246 147.426 131.551 147.777 131.785C148.137 132.012 148.738 132.211 149.582 132.383C150.426 132.547 151.137 132.734 151.715 132.945C153.504 133.602 154.398 134.738 154.398 136.355C154.398 137.512 153.902 138.449 152.91 139.168C151.918 139.879 150.637 140.234 149.066 140.234C148.004 140.234 147.059 140.047 146.23 139.672C145.41 139.289 144.766 138.77 144.297 138.113C143.828 137.449 143.594 136.734 143.594 135.969H146.805C146.836 136.57 147.059 137.031 147.473 137.352C147.887 137.672 148.441 137.832 149.137 137.832C149.785 137.832 150.273 137.711 150.602 137.469C150.938 137.219 151.105 136.895 151.105 136.496ZM160.164 140H156.766V127.32H160.164V140ZM156.566 124.039C156.566 123.531 156.734 123.113 157.07 122.785C157.414 122.457 157.879 122.293 158.465 122.293C159.043 122.293 159.504 122.457 159.848 122.785C160.191 123.113 160.363 123.531 160.363 124.039C160.363 124.555 160.188 124.977 159.836 125.305C159.492 125.633 159.035 125.797 158.465 125.797C157.895 125.797 157.434 125.633 157.082 125.305C156.738 124.977 156.566 124.555 156.566 124.039ZM167.02 124.203V127.32H169.188V129.805H167.02V136.133C167.02 136.602 167.109 136.938 167.289 137.141C167.469 137.344 167.812 137.445 168.32 137.445C168.695 137.445 169.027 137.418 169.316 137.363V139.93C168.652 140.133 167.969 140.234 167.266 140.234C164.891 140.234 163.68 139.035 163.633 136.637V129.805H161.781V127.32H163.633V124.203H167.02ZM176.91 140.234C175.051 140.234 173.535 139.664 172.363 138.523C171.199 137.383 170.617 135.863 170.617 133.965V133.637C170.617 132.363 170.863 131.227 171.355 130.227C171.848 129.219 172.543 128.445 173.441 127.906C174.348 127.359 175.379 127.086 176.535 127.086C178.27 127.086 179.633 127.633 180.625 128.727C181.625 129.82 182.125 131.371 182.125 133.379V134.762H174.051C174.16 135.59 174.488 136.254 175.035 136.754C175.59 137.254 176.289 137.504 177.133 137.504C178.438 137.504 179.457 137.031 180.191 136.086L181.855 137.949C181.348 138.668 180.66 139.23 179.793 139.637C178.926 140.035 177.965 140.234 176.91 140.234ZM176.523 129.828C175.852 129.828 175.305 130.055 174.883 130.508C174.469 130.961 174.203 131.609 174.086 132.453H178.797V132.184C178.781 131.434 178.578 130.855 178.188 130.449C177.797 130.035 177.242 129.828 176.523 129.828Z" fill="black"/>
<rect x="303" y="79" width="165" height="194" rx="20" fill="#EE8C8C"/>
<rect x="40" y="273" width="107" height="219" rx="20" transform="rotate(-90 40 273)" fill="#7CDDEA"/>
<path d="M560.922 95.8125L573.062 98.1094V101.613L556 97.8281V94.2891L567.414 91.5117L556 88.7344V85.1953L573.062 81.4102V84.9141L560.945 87.2227L573.062 90.0352V93.0117L560.922 95.8125ZM555.766 108.762C555.766 106.902 556.336 105.387 557.477 104.215C558.617 103.051 560.137 102.469 562.035 102.469H562.363C563.637 102.469 564.773 102.715 565.773 103.207C566.781 103.699 567.555 104.395 568.094 105.293C568.641 106.199 568.914 107.23 568.914 108.387C568.914 110.121 568.367 111.484 567.273 112.477C566.18 113.477 564.629 113.977 562.621 113.977H561.238V105.902C560.41 106.012 559.746 106.34 559.246 106.887C558.746 107.441 558.496 108.141 558.496 108.984C558.496 110.289 558.969 111.309 559.914 112.043L558.051 113.707C557.332 113.199 556.77 112.512 556.363 111.645C555.965 110.777 555.766 109.816 555.766 108.762ZM566.172 108.375C566.172 107.703 565.945 107.156 565.492 106.734C565.039 106.32 564.391 106.055 563.547 105.938V110.648H563.816C564.566 110.633 565.145 110.43 565.551 110.039C565.965 109.648 566.172 109.094 566.172 108.375ZM562.223 127.336C560.191 127.336 558.605 126.902 557.465 126.035C556.332 125.168 555.766 123.957 555.766 122.402C555.766 121.027 556.293 119.93 557.348 119.109L556 118.957V115.91H574V119.297H567.543C568.457 120.078 568.914 121.105 568.914 122.379C568.914 123.926 568.344 125.137 567.203 126.012C566.07 126.895 564.473 127.336 562.41 127.336H562.223ZM562.469 123.949C563.75 123.949 564.684 123.746 565.27 123.34C565.863 122.934 566.16 122.328 566.16 121.523C566.16 120.445 565.719 119.703 564.836 119.297H559.832C558.941 119.711 558.496 120.461 558.496 121.547C558.496 122.641 559.035 123.359 560.113 123.703C560.629 123.867 561.414 123.949 562.469 123.949ZM556 135.633H573.062V140.883C573.062 142.383 572.723 143.723 572.043 144.902C571.371 146.09 570.41 147.016 569.16 147.68C567.918 148.344 566.504 148.676 564.918 148.676H564.133C562.547 148.676 561.137 148.348 559.902 147.691C558.668 147.043 557.711 146.125 557.031 144.938C556.352 143.75 556.008 142.41 556 140.918V135.633ZM570.215 139.148H558.824V140.848C558.824 142.223 559.273 143.273 560.172 144C561.07 144.727 562.355 145.098 564.027 145.113H564.93C566.664 145.113 567.977 144.754 568.867 144.035C569.766 143.316 570.215 142.266 570.215 140.883V139.148ZM555.766 156.855C555.766 154.996 556.336 153.48 557.477 152.309C558.617 151.145 560.137 150.562 562.035 150.562H562.363C563.637 150.562 564.773 150.809 565.773 151.301C566.781 151.793 567.555 152.488 568.094 153.387C568.641 154.293 568.914 155.324 568.914 156.48C568.914 158.215 568.367 159.578 567.273 160.57C566.18 161.57 564.629 162.07 562.621 162.07H561.238V153.996C560.41 154.105 559.746 154.434 559.246 154.98C558.746 155.535 558.496 156.234 558.496 157.078C558.496 158.383 558.969 159.402 559.914 160.137L558.051 161.801C557.332 161.293 556.77 160.605 556.363 159.738C555.965 158.871 555.766 157.91 555.766 156.855ZM566.172 156.469C566.172 155.797 565.945 155.25 565.492 154.828C565.039 154.414 564.391 154.148 563.547 154.031V158.742H563.816C564.566 158.727 565.145 158.523 565.551 158.133C565.965 157.742 566.172 157.188 566.172 156.469ZM559.504 170.871C559.918 170.871 560.242 170.664 560.477 170.25C560.719 169.844 560.934 169.188 561.121 168.281C561.754 165.266 563.035 163.758 564.965 163.758C566.09 163.758 567.027 164.223 567.777 165.152C568.535 166.09 568.914 167.312 568.914 168.82C568.914 170.43 568.535 171.715 567.777 172.676C567.02 173.645 566.035 174.129 564.824 174.129V170.742C565.309 170.742 565.707 170.586 566.02 170.273C566.34 169.961 566.5 169.473 566.5 168.809C566.5 168.238 566.371 167.797 566.113 167.484C565.855 167.172 565.527 167.016 565.129 167.016C564.754 167.016 564.449 167.191 564.215 167.543C563.988 167.902 563.789 168.504 563.617 169.348C563.453 170.191 563.266 170.902 563.055 171.48C562.398 173.27 561.262 174.164 559.645 174.164C558.488 174.164 557.551 173.668 556.832 172.676C556.121 171.684 555.766 170.402 555.766 168.832C555.766 167.77 555.953 166.824 556.328 165.996C556.711 165.176 557.23 164.531 557.887 164.062C558.551 163.594 559.266 163.359 560.031 163.359V166.57C559.43 166.602 558.969 166.824 558.648 167.238C558.328 167.652 558.168 168.207 558.168 168.902C558.168 169.551 558.289 170.039 558.531 170.367C558.781 170.703 559.105 170.871 559.504 170.871ZM561.086 180.961L559.867 179.742H556V176.355H574V179.742H564.027L564.871 180.398L568.68 183.645V187.711L563.395 183.129L556 188.109V184.219L561.086 180.961ZM571.797 193.23H568.68V195.398H566.195V193.23H559.867C559.398 193.23 559.062 193.32 558.859 193.5C558.656 193.68 558.555 194.023 558.555 194.531C558.555 194.906 558.582 195.238 558.637 195.527H556.07C555.867 194.863 555.766 194.18 555.766 193.477C555.766 191.102 556.965 189.891 559.363 189.844H566.195V187.992H568.68V189.844H571.797V193.23ZM562.457 196.406C563.715 196.406 564.836 196.648 565.82 197.133C566.805 197.617 567.566 198.312 568.105 199.219C568.645 200.133 568.914 201.191 568.914 202.395C568.914 204.105 568.391 205.5 567.344 206.578C566.297 207.664 564.875 208.27 563.078 208.395L562.211 208.418C560.266 208.418 558.703 207.875 557.523 206.789C556.352 205.703 555.766 204.246 555.766 202.418C555.766 200.59 556.352 199.129 557.523 198.035C558.695 196.949 560.289 196.406 562.305 196.406H562.457ZM562.211 199.793C561.008 199.793 560.086 200.02 559.445 200.473C558.812 200.926 558.496 201.574 558.496 202.418C558.496 203.238 558.809 203.879 559.434 204.34C560.066 204.801 561.074 205.031 562.457 205.031C563.637 205.031 564.551 204.801 565.199 204.34C565.848 203.879 566.172 203.23 566.172 202.395C566.172 201.566 565.848 200.926 565.199 200.473C564.559 200.02 563.562 199.793 562.211 199.793ZM562.223 221.918C560.27 221.918 558.703 221.473 557.523 220.582C556.352 219.699 555.766 218.504 555.766 216.996C555.766 215.715 556.211 214.68 557.102 213.891H551.125V210.504H568.68V213.645L567.438 213.762C568.422 214.582 568.914 215.652 568.914 216.973C568.914 218.535 568.336 219.75 567.18 220.617C566.023 221.484 564.43 221.918 562.398 221.918H562.223ZM562.469 218.531C563.648 218.531 564.559 218.32 565.199 217.898C565.84 217.484 566.16 216.879 566.16 216.082C566.16 215.02 565.754 214.289 564.941 213.891H559.75C558.914 214.305 558.496 215.043 558.496 216.105C558.496 217.723 559.82 218.531 562.469 218.531Z" fill="black"/>
<line x1="563.5" y1="23" x2="563.5" y2="63" stroke="#797979" stroke-width="3"/>
<line x1="563.5" y1="233" x2="563.5" y2="273" stroke="#797979" stroke-width="3"/>
<path d="M947.922 121.812L960.062 124.109V127.613L943 123.828V120.289L954.414 117.512L943 114.734V111.195L960.062 107.41V110.914L947.945 113.223L960.062 116.035V119.012L947.922 121.812ZM942.766 134.762C942.766 132.902 943.336 131.387 944.477 130.215C945.617 129.051 947.137 128.469 949.035 128.469H949.363C950.637 128.469 951.773 128.715 952.773 129.207C953.781 129.699 954.555 130.395 955.094 131.293C955.641 132.199 955.914 133.23 955.914 134.387C955.914 136.121 955.367 137.484 954.273 138.477C953.18 139.477 951.629 139.977 949.621 139.977H948.238V131.902C947.41 132.012 946.746 132.34 946.246 132.887C945.746 133.441 945.496 134.141 945.496 134.984C945.496 136.289 945.969 137.309 946.914 138.043L945.051 139.707C944.332 139.199 943.77 138.512 943.363 137.645C942.965 136.777 942.766 135.816 942.766 134.762ZM953.172 134.375C953.172 133.703 952.945 133.156 952.492 132.734C952.039 132.32 951.391 132.055 950.547 131.938V136.648H950.816C951.566 136.633 952.145 136.43 952.551 136.039C952.965 135.648 953.172 135.094 953.172 134.375ZM949.223 153.336C947.191 153.336 945.605 152.902 944.465 152.035C943.332 151.168 942.766 149.957 942.766 148.402C942.766 147.027 943.293 145.93 944.348 145.109L943 144.957V141.91H961V145.297H954.543C955.457 146.078 955.914 147.105 955.914 148.379C955.914 149.926 955.344 151.137 954.203 152.012C953.07 152.895 951.473 153.336 949.41 153.336H949.223ZM949.469 149.949C950.75 149.949 951.684 149.746 952.27 149.34C952.863 148.934 953.16 148.328 953.16 147.523C953.16 146.445 952.719 145.703 951.836 145.297H946.832C945.941 145.711 945.496 146.461 945.496 147.547C945.496 148.641 946.035 149.359 947.113 149.703C947.629 149.867 948.414 149.949 949.469 149.949ZM957.215 173.773V168.547H943V165.031H957.215V159.875H960.062V173.773H957.215ZM943 180.945C943.305 180.789 943.684 180.676 944.137 180.605C943.223 179.785 942.766 178.719 942.766 177.406C942.766 176.164 943.125 175.133 943.844 174.312C944.562 173.5 945.469 173.094 946.562 173.094C947.906 173.094 948.938 173.59 949.656 174.582C950.375 175.582 950.738 177.023 950.746 178.906V180.465H951.473C952.059 180.465 952.527 180.312 952.879 180.008C953.23 179.711 953.406 179.238 953.406 178.59C953.406 178.02 953.27 177.57 952.996 177.242C952.723 176.922 952.348 176.762 951.871 176.762V173.375C952.605 173.375 953.285 173.602 953.91 174.055C954.535 174.508 955.023 175.148 955.375 175.977C955.734 176.805 955.914 177.734 955.914 178.766C955.914 180.328 955.52 181.566 954.73 182.48C953.949 183.402 952.848 183.863 951.426 183.863H945.93C944.727 183.871 943.816 184.039 943.199 184.367H943V180.945ZM945.355 178.145C945.355 178.645 945.465 179.105 945.684 179.527C945.91 179.949 946.211 180.262 946.586 180.465H948.766V179.199C948.766 177.504 948.18 176.602 947.008 176.492L946.809 176.48C946.387 176.48 946.039 176.629 945.766 176.926C945.492 177.223 945.355 177.629 945.355 178.145ZM949.223 197.891C947.191 197.891 945.605 197.457 944.465 196.59C943.332 195.723 942.766 194.512 942.766 192.957C942.766 191.582 943.293 190.484 944.348 189.664L943 189.512V186.465H961V189.852H954.543C955.457 190.633 955.914 191.66 955.914 192.934C955.914 194.48 955.344 195.691 954.203 196.566C953.07 197.449 951.473 197.891 949.41 197.891H949.223ZM949.469 194.504C950.75 194.504 951.684 194.301 952.27 193.895C952.863 193.488 953.16 192.883 953.16 192.078C953.16 191 952.719 190.258 951.836 189.852H946.832C945.941 190.266 945.496 191.016 945.496 192.102C945.496 193.195 946.035 193.914 947.113 194.258C947.629 194.422 948.414 194.504 949.469 194.504ZM943 203.562V200.164H961V203.562H943ZM942.766 212.199C942.766 210.34 943.336 208.824 944.477 207.652C945.617 206.488 947.137 205.906 949.035 205.906H949.363C950.637 205.906 951.773 206.152 952.773 206.645C953.781 207.137 954.555 207.832 955.094 208.73C955.641 209.637 955.914 210.668 955.914 211.824C955.914 213.559 955.367 214.922 954.273 215.914C953.18 216.914 951.629 217.414 949.621 217.414H948.238V209.34C947.41 209.449 946.746 209.777 946.246 210.324C945.746 210.879 945.496 211.578 945.496 212.422C945.496 213.727 945.969 214.746 946.914 215.48L945.051 217.145C944.332 216.637 943.77 215.949 943.363 215.082C942.965 214.215 942.766 213.254 942.766 212.199ZM953.172 211.812C953.172 211.141 952.945 210.594 952.492 210.172C952.039 209.758 951.391 209.492 950.547 209.375V214.086H950.816C951.566 214.07 952.145 213.867 952.551 213.477C952.965 213.086 953.172 212.531 953.172 211.812ZM958.797 223.402H955.68V225.57H953.195V223.402H946.867C946.398 223.402 946.062 223.492 945.859 223.672C945.656 223.852 945.555 224.195 945.555 224.703C945.555 225.078 945.582 225.41 945.637 225.699H943.07C942.867 225.035 942.766 224.352 942.766 223.648C942.766 221.273 943.965 220.062 946.363 220.016H953.195V218.164H955.68V220.016H958.797V223.402Z" fill="black"/>
<line x1="950.5" y1="49" x2="950.5" y2="89" stroke="#797979" stroke-width="3"/>
<line x1="950.5" y1="259" x2="950.5" y2="299" stroke="#797979" stroke-width="3"/>
<rect x="613.5" y="2.5" width="293" height="327" rx="27.5" stroke="black" stroke-width="5"/>
<rect x="642" y="45" width="236" height="137" rx="20" fill="#F2FF60"/>
<rect x="765" y="211" width="92" height="17" fill="#C4C4C4"/>
<rect x="765" y="243" width="92" height="16" fill="#C4C4C4"/>
<rect x="765" y="275" width="92" height="16" fill="#C4C4C4"/>
<ellipse cx="691.5" cy="251.5" rx="45.5" ry="44.5" fill="#C4C4C4"/>
<path d="M640.312 67V62.8984L643.945 62.1953V37.7031L640.312 37V32.875H643.945H650.789H654.445V37L650.789 37.7031V61.75H660.422L660.75 57.4609H665.977V67H640.312ZM680.742 67.4922C677.086 67.4922 674.164 66.3203 671.977 63.9766C669.789 61.6328 668.695 58.6562 668.695 55.0469V54.1094C668.695 50.3438 669.727 47.2422 671.789 44.8047C673.867 42.3672 676.648 41.1562 680.133 41.1719C683.555 41.1719 686.211 42.2031 688.102 44.2656C689.992 46.3281 690.938 49.1172 690.938 52.6328V56.3594H675.797L675.75 56.5C675.875 58.1719 676.43 59.5469 677.414 60.625C678.414 61.7031 679.766 62.2422 681.469 62.2422C682.984 62.2422 684.242 62.0938 685.242 61.7969C686.242 61.4844 687.336 61 688.523 60.3438L690.375 64.5625C689.328 65.3906 687.969 66.0859 686.297 66.6484C684.641 67.2109 682.789 67.4922 680.742 67.4922ZM680.133 46.4453C678.867 46.4453 677.867 46.9297 677.133 47.8984C676.398 48.8672 675.945 50.1406 675.773 51.7188L675.844 51.8359H684.234V51.2266C684.234 49.7734 683.891 48.6172 683.203 47.7578C682.531 46.8828 681.508 46.4453 680.133 46.4453ZM704.297 35.4297V41.6406H708.75V46.4453H704.297V59.3594C704.297 60.3438 704.5 61.0469 704.906 61.4688C705.312 61.8906 705.859 62.1016 706.547 62.1016C707.016 62.1016 707.422 62.0859 707.766 62.0547C708.125 62.0078 708.523 61.9375 708.961 61.8438L709.547 66.7891C708.781 67.0234 708.023 67.1953 707.273 67.3047C706.523 67.4297 705.711 67.4922 704.836 67.4922C702.477 67.4922 700.656 66.8438 699.375 65.5469C698.109 64.25 697.477 62.1953 697.477 59.3828V46.4453H693.75V41.6406H697.477V35.4297H704.297ZM719.648 34.9141C719.648 36.4766 719.234 38.125 718.406 39.8594C717.578 41.5781 716.57 42.9844 715.383 44.0781L712.008 42.2266C712.617 41.1484 713.086 40.0312 713.414 38.875C713.742 37.7031 713.906 36.3828 713.906 34.9141V30.4375H719.648V34.9141ZM741.703 50.3594H737.109L736.383 47.1953C735.914 46.8203 735.32 46.5078 734.602 46.2578C733.898 46.0078 733.117 45.8828 732.258 45.8828C731.055 45.8828 730.102 46.1562 729.398 46.7031C728.695 47.2344 728.344 47.9062 728.344 48.7188C728.344 49.4844 728.68 50.125 729.352 50.6406C730.023 51.1406 731.367 51.5859 733.383 51.9766C736.523 52.6016 738.852 53.5234 740.367 54.7422C741.883 55.9453 742.641 57.6094 742.641 59.7344C742.641 62.0156 741.656 63.8828 739.688 65.3359C737.734 66.7734 735.156 67.4922 731.953 67.4922C730 67.4922 728.203 67.2109 726.562 66.6484C724.938 66.0703 723.492 65.25 722.227 64.1875L722.156 58.4922H726.938L727.875 61.7969C728.281 62.1406 728.836 62.3984 729.539 62.5703C730.242 62.7266 730.977 62.8047 731.742 62.8047C733.133 62.8047 734.188 62.5547 734.906 62.0547C735.641 61.5547 736.008 60.875 736.008 60.0156C736.008 59.2656 735.641 58.6172 734.906 58.0703C734.172 57.5234 732.82 57.0391 730.852 56.6172C727.867 56.0078 725.609 55.1094 724.078 53.9219C722.562 52.7188 721.805 51.0859 721.805 49.0234C721.805 46.8984 722.68 45.0703 724.43 43.5391C726.18 41.9922 728.672 41.2188 731.906 41.2188C733.875 41.2188 735.734 41.4844 737.484 42.0156C739.25 42.5469 740.633 43.2266 741.633 44.0547L741.703 50.3594Z" fill="black"/>
<path d="M699.477 76.875C703.492 76.875 706.625 77.6562 708.875 79.2188C711.125 80.7812 712.25 83.1172 712.25 86.2266C712.25 87.8047 711.828 89.2188 710.984 90.4688C710.156 91.7031 708.945 92.6328 707.352 93.2578C709.398 93.6953 710.93 94.6328 711.945 96.0703C712.977 97.5078 713.492 99.1719 713.492 101.062C713.492 104.328 712.414 106.805 710.258 108.492C708.102 110.164 705.047 111 701.094 111H684.312V106.898L687.945 106.195V81.7031L684.312 81V76.875H687.945H699.477ZM694.789 95.9062V105.75H701.094C702.906 105.75 704.289 105.359 705.242 104.578C706.195 103.781 706.672 102.609 706.672 101.062C706.672 99.3906 706.266 98.1172 705.453 97.2422C704.641 96.3516 703.359 95.9062 701.609 95.9062H694.789ZM694.789 91.1719H699.711C701.539 91.1719 702.945 90.7969 703.93 90.0469C704.914 89.2969 705.406 88.2031 705.406 86.7656C705.406 85.1875 704.906 84.0234 703.906 83.2734C702.922 82.5234 701.445 82.1484 699.477 82.1484H694.789V91.1719ZM733.953 107.789C733.141 108.977 732.133 109.891 730.93 110.531C729.742 111.172 728.383 111.492 726.852 111.492C724.18 111.492 722.086 110.641 720.57 108.938C719.055 107.219 718.297 104.555 718.297 100.945V90.4688L715.508 89.7656V85.6406H718.297H725.141V100.992C725.141 102.836 725.445 104.164 726.055 104.977C726.68 105.773 727.602 106.172 728.82 106.172C729.898 106.172 730.828 106 731.609 105.656C732.406 105.297 733.055 104.789 733.555 104.133V90.4688L730.555 89.7656V85.6406H733.555H740.398V106.195L743.469 106.898V111H734.398L733.953 107.789ZM745.953 106.898L749.258 106.195V90.4688L745.602 89.7656V85.6406H756.102V106.195L759.383 106.898V111H745.953V106.898ZM756.102 79.5703H749.258V74.4375H756.102V79.5703ZM760.906 78.5625V74.4375H771.406V106.195L774.711 106.898V111H761.258V106.898L764.562 106.195V79.2656L760.906 78.5625ZM793.461 107.906C792.664 109.078 791.719 109.969 790.625 110.578C789.547 111.188 788.312 111.492 786.922 111.492C783.797 111.492 781.367 110.352 779.633 108.07C777.914 105.789 777.055 102.773 777.055 99.0234V98.5312C777.055 94.5312 777.922 91.3047 779.656 88.8516C781.391 86.3984 783.828 85.1719 786.969 85.1719C788.234 85.1719 789.375 85.4531 790.391 86.0156C791.406 86.5625 792.297 87.3438 793.062 88.3594V79.2656L789.406 78.5625V74.4375H793.062H799.906V106.195L803.188 106.898V111H793.977L793.461 107.906ZM783.898 99.0234C783.898 101.242 784.266 102.992 785 104.273C785.75 105.539 786.969 106.172 788.656 106.172C789.656 106.172 790.523 105.969 791.258 105.562C791.992 105.156 792.594 104.57 793.062 103.805V93.0469C792.594 92.2344 791.992 91.6094 791.258 91.1719C790.539 90.7188 789.688 90.4922 788.703 90.4922C787.031 90.4922 785.812 91.2344 785.047 92.7188C784.281 94.2031 783.898 96.1406 783.898 98.5312V99.0234Z" fill="black"/>
<path d="M1190.92 125.812L1203.06 128.109V131.613L1186 127.828V124.289L1197.41 121.512L1186 118.734V115.195L1203.06 111.41V114.914L1190.95 117.223L1203.06 120.035V123.012L1190.92 125.812ZM1185.77 138.762C1185.77 136.902 1186.34 135.387 1187.48 134.215C1188.62 133.051 1190.14 132.469 1192.04 132.469H1192.36C1193.64 132.469 1194.77 132.715 1195.77 133.207C1196.78 133.699 1197.55 134.395 1198.09 135.293C1198.64 136.199 1198.91 137.23 1198.91 138.387C1198.91 140.121 1198.37 141.484 1197.27 142.477C1196.18 143.477 1194.63 143.977 1192.62 143.977H1191.24V135.902C1190.41 136.012 1189.75 136.34 1189.25 136.887C1188.75 137.441 1188.5 138.141 1188.5 138.984C1188.5 140.289 1188.97 141.309 1189.91 142.043L1188.05 143.707C1187.33 143.199 1186.77 142.512 1186.36 141.645C1185.96 140.777 1185.77 139.816 1185.77 138.762ZM1196.17 138.375C1196.17 137.703 1195.95 137.156 1195.49 136.734C1195.04 136.32 1194.39 136.055 1193.55 135.938V140.648H1193.82C1194.57 140.633 1195.14 140.43 1195.55 140.039C1195.96 139.648 1196.17 139.094 1196.17 138.375ZM1192.22 157.336C1190.19 157.336 1188.61 156.902 1187.46 156.035C1186.33 155.168 1185.77 153.957 1185.77 152.402C1185.77 151.027 1186.29 149.93 1187.35 149.109L1186 148.957V145.91H1204V149.297H1197.54C1198.46 150.078 1198.91 151.105 1198.91 152.379C1198.91 153.926 1198.34 155.137 1197.2 156.012C1196.07 156.895 1194.47 157.336 1192.41 157.336H1192.22ZM1192.47 153.949C1193.75 153.949 1194.68 153.746 1195.27 153.34C1195.86 152.934 1196.16 152.328 1196.16 151.523C1196.16 150.445 1195.72 149.703 1194.84 149.297H1189.83C1188.94 149.711 1188.5 150.461 1188.5 151.547C1188.5 152.641 1189.04 153.359 1190.11 153.703C1190.63 153.867 1191.41 153.949 1192.47 153.949ZM1192.01 169.148H1186V165.633H1203.06V172.289C1203.06 173.57 1202.83 174.695 1202.36 175.664C1201.89 176.641 1201.22 177.391 1200.36 177.914C1199.5 178.438 1198.52 178.699 1197.41 178.699C1195.74 178.699 1194.42 178.125 1193.45 176.977C1192.49 175.836 1192.01 174.254 1192.01 172.23V169.148ZM1194.86 169.148V172.289C1194.86 173.219 1195.08 173.926 1195.52 174.41C1195.95 174.902 1196.58 175.148 1197.39 175.148C1198.23 175.148 1198.9 174.902 1199.42 174.41C1199.93 173.918 1200.2 173.238 1200.21 172.371V169.148H1194.86ZM1197.3 184.207C1198.38 185.105 1198.91 186.234 1198.91 187.594C1198.91 190.344 1197.32 191.738 1194.12 191.777H1186V188.391H1194.03C1194.75 188.391 1195.29 188.234 1195.63 187.922C1195.98 187.609 1196.16 187.09 1196.16 186.363C1196.16 185.371 1195.78 184.652 1195.01 184.207H1186V180.82H1204V184.207H1197.3ZM1192.46 193.805C1193.71 193.805 1194.84 194.047 1195.82 194.531C1196.8 195.016 1197.57 195.711 1198.11 196.617C1198.64 197.531 1198.91 198.59 1198.91 199.793C1198.91 201.504 1198.39 202.898 1197.34 203.977C1196.3 205.062 1194.88 205.668 1193.08 205.793L1192.21 205.816C1190.27 205.816 1188.7 205.273 1187.52 204.188C1186.35 203.102 1185.77 201.645 1185.77 199.816C1185.77 197.988 1186.35 196.527 1187.52 195.434C1188.7 194.348 1190.29 193.805 1192.3 193.805H1192.46ZM1192.21 197.191C1191.01 197.191 1190.09 197.418 1189.45 197.871C1188.81 198.324 1188.5 198.973 1188.5 199.816C1188.5 200.637 1188.81 201.277 1189.43 201.738C1190.07 202.199 1191.07 202.43 1192.46 202.43C1193.64 202.43 1194.55 202.199 1195.2 201.738C1195.85 201.277 1196.17 200.629 1196.17 199.793C1196.17 198.965 1195.85 198.324 1195.2 197.871C1194.56 197.418 1193.56 197.191 1192.21 197.191ZM1198.68 211.02L1197.21 211.125C1198.35 212.031 1198.91 213.246 1198.91 214.77C1198.91 216.113 1198.52 217.113 1197.73 217.77C1196.94 218.426 1195.76 218.762 1194.19 218.777H1186V215.391H1194.11C1194.83 215.391 1195.35 215.234 1195.67 214.922C1196 214.609 1196.16 214.09 1196.16 213.363C1196.16 212.41 1195.75 211.695 1194.94 211.219H1186V207.832H1198.68V211.02ZM1185.77 227.191C1185.77 225.332 1186.34 223.816 1187.48 222.645C1188.62 221.48 1190.14 220.898 1192.04 220.898H1192.36C1193.64 220.898 1194.77 221.145 1195.77 221.637C1196.78 222.129 1197.55 222.824 1198.09 223.723C1198.64 224.629 1198.91 225.66 1198.91 226.816C1198.91 228.551 1198.37 229.914 1197.27 230.906C1196.18 231.906 1194.63 232.406 1192.62 232.406H1191.24V224.332C1190.41 224.441 1189.75 224.77 1189.25 225.316C1188.75 225.871 1188.5 226.57 1188.5 227.414C1188.5 228.719 1188.97 229.738 1189.91 230.473L1188.05 232.137C1187.33 231.629 1186.77 230.941 1186.36 230.074C1185.96 229.207 1185.77 228.246 1185.77 227.191ZM1196.17 226.805C1196.17 226.133 1195.95 225.586 1195.49 225.164C1195.04 224.75 1194.39 224.484 1193.55 224.367V229.078H1193.82C1194.57 229.062 1195.14 228.859 1195.55 228.469C1195.96 228.078 1196.17 227.523 1196.17 226.805Z" fill="black"/>
<line x1="1193.5" y1="41" x2="1193.5" y2="81" stroke="#797979" stroke-width="3"/>
<line x1="1193.5" y1="251" x2="1193.5" y2="291" stroke="#797979" stroke-width="3"/>
<rect x="1007.5" y="35.5" width="142" height="261" rx="17.5" stroke="black" stroke-width="5"/>
<rect x="1023" y="49" width="111" height="70" rx="20" fill="#FD88FF"/>
<rect x="1023" y="140" width="111" height="32" rx="5" fill="#D6D6D6"/>
<rect x="1023" y="179" width="111" height="32" rx="5" fill="#E7E7E7"/>
<rect x="1023" y="218" width="111" height="32" rx="5" fill="#EDEDED"/>
<rect x="1023" y="257" width="111" height="32" rx="5" fill="#F4F4F4"/>
<path d="M1038.02 60.8438C1037.39 61.6016 1036.5 62.1914 1035.34 62.6133C1034.18 63.0273 1032.9 63.2344 1031.5 63.2344C1030.02 63.2344 1028.72 62.9141 1027.61 62.2734C1026.5 61.625 1025.64 60.6875 1025.03 59.4609C1024.43 58.2344 1024.12 56.793 1024.1 55.1367V53.9766C1024.1 52.2734 1024.39 50.8008 1024.96 49.5586C1025.54 48.3086 1026.36 47.3555 1027.44 46.6992C1028.53 46.0352 1029.8 45.7031 1031.25 45.7031C1033.27 45.7031 1034.86 46.1875 1036 47.1562C1037.14 48.1172 1037.81 49.5195 1038.02 51.3633H1034.6C1034.45 50.3867 1034.1 49.6719 1033.56 49.2188C1033.03 48.7656 1032.29 48.5391 1031.36 48.5391C1030.16 48.5391 1029.25 48.9883 1028.62 49.8867C1028 50.7852 1027.68 52.1211 1027.68 53.8945V54.9844C1027.68 56.7734 1028.02 58.125 1028.7 59.0391C1029.38 59.9531 1030.37 60.4102 1031.68 60.4102C1033 60.4102 1033.95 60.1289 1034.51 59.5664V56.625H1031.31V54.0352H1038.02V60.8438ZM1040.13 56.543C1040.13 55.2852 1040.38 54.1641 1040.86 53.1797C1041.34 52.1953 1042.04 51.4336 1042.95 50.8945C1043.86 50.3555 1044.92 50.0859 1046.12 50.0859C1047.83 50.0859 1049.23 50.6094 1050.3 51.6562C1051.39 52.7031 1052 54.125 1052.12 55.9219L1052.14 56.7891C1052.14 58.7344 1051.6 60.2969 1050.52 61.4766C1049.43 62.6484 1047.97 63.2344 1046.14 63.2344C1044.32 63.2344 1042.86 62.6484 1041.76 61.4766C1040.68 60.3047 1040.13 58.7109 1040.13 56.6953V56.543ZM1043.52 56.7891C1043.52 57.9922 1043.75 58.9141 1044.2 59.5547C1044.65 60.1875 1045.3 60.5039 1046.14 60.5039C1046.96 60.5039 1047.61 60.1914 1048.07 59.5664C1048.53 58.9336 1048.76 57.9258 1048.76 56.543C1048.76 55.3633 1048.53 54.4492 1048.07 53.8008C1047.61 53.1523 1046.96 52.8281 1046.12 52.8281C1045.29 52.8281 1044.65 53.1523 1044.2 53.8008C1043.75 54.4414 1043.52 55.4375 1043.52 56.7891Z" fill="black"/>
</svg>
