<svg width="20" height="20" viewBox="0 0 20 20" fill="none" xmlns="http://www.w3.org/2000/svg">
<circle cx="10" cy="10" r="9.5" stroke="black"/>
<path d="M15.8637 10C15.8637 12.681 15.1712 15.0848 14.0781 16.8026C12.9811 18.5264 11.5271 19.5 10.0001 19.5C8.47308 19.5 7.01913 18.5264 5.92217 16.8026C4.82898 15.0848 4.13647 12.681 4.13647 10C4.13647 7.31898 4.82898 4.91524 5.92217 3.19737C7.01913 1.47357 8.47308 0.5 10.0001 0.5C11.5271 0.5 12.9811 1.47357 14.0781 3.19737C15.1712 4.91524 15.8637 7.31898 15.8637 10Z" stroke="black"/>
<path d="M10.1299 0.389612V19.3507" stroke="black"/>
<path d="M1.29858 5.97402H18.8311" stroke="black"/>
<path d="M0.129883 10.2597H19.6104" stroke="black"/>
<path d="M1.29858 14.2857H18.8311" stroke="black"/>
</svg>
