<svg width="355" height="511" viewBox="0 0 355 511" fill="none" xmlns="http://www.w3.org/2000/svg">
<rect x="57.5" y="45.5" width="295" height="463" rx="48.5" stroke="#B5B5B5" stroke-width="5"/>
<rect x="2.5" y="2.5" width="295" height="463" rx="48.5" fill="white" stroke="black" stroke-width="5"/>
<circle cx="56" cy="91" r="20" fill="#C4C4C4"/>
<path d="M42.1172 133.938L46.5 146.312L50.8594 133.938H55.4766V151H51.9492V146.336L52.3008 138.285L47.6953 151H45.2812L40.6875 138.297L41.0391 146.336V151H37.5234V133.938H42.1172ZM65.6719 151C65.5156 150.695 65.4023 150.316 65.332 149.863C64.5117 150.777 63.4453 151.234 62.1328 151.234C60.8906 151.234 59.8594 150.875 59.0391 150.156C58.2266 149.438 57.8203 148.531 57.8203 147.438C57.8203 146.094 58.3164 145.062 59.3086 144.344C60.3086 143.625 61.75 143.262 63.6328 143.254H65.1914V142.527C65.1914 141.941 65.0391 141.473 64.7344 141.121C64.4375 140.77 63.9648 140.594 63.3164 140.594C62.7461 140.594 62.2969 140.73 61.9688 141.004C61.6484 141.277 61.4883 141.652 61.4883 142.129H58.1016C58.1016 141.395 58.3281 140.715 58.7812 140.09C59.2344 139.465 59.875 138.977 60.7031 138.625C61.5312 138.266 62.4609 138.086 63.4922 138.086C65.0547 138.086 66.293 138.48 67.207 139.27C68.1289 140.051 68.5898 141.152 68.5898 142.574V148.07C68.5977 149.273 68.7656 150.184 69.0938 150.801V151H65.6719ZM62.8711 148.645C63.3711 148.645 63.832 148.535 64.2539 148.316C64.6758 148.09 64.9883 147.789 65.1914 147.414V145.234H63.9258C62.2305 145.234 61.3281 145.82 61.2188 146.992L61.207 147.191C61.207 147.613 61.3555 147.961 61.6523 148.234C61.9492 148.508 62.3555 148.645 62.8711 148.645ZM75.7969 145.914L74.5781 147.133V151H71.1914V133H74.5781V142.973L75.2344 142.129L78.4805 138.32H82.5469L77.9648 143.605L82.9453 151H79.0547L75.7969 145.914ZM89.6133 151.234C87.7539 151.234 86.2383 150.664 85.0664 149.523C83.9023 148.383 83.3203 146.863 83.3203 144.965V144.637C83.3203 143.363 83.5664 142.227 84.0586 141.227C84.5508 140.219 85.2461 139.445 86.1445 138.906C87.0508 138.359 88.082 138.086 89.2383 138.086C90.9727 138.086 92.3359 138.633 93.3281 139.727C94.3281 140.82 94.8281 142.371 94.8281 144.379V145.762H86.7539C86.8633 146.59 87.1914 147.254 87.7383 147.754C88.293 148.254 88.9922 148.504 89.8359 148.504C91.1406 148.504 92.1602 148.031 92.8945 147.086L94.5586 148.949C94.0508 149.668 93.3633 150.23 92.4961 150.637C91.6289 151.035 90.668 151.234 89.6133 151.234ZM89.2266 140.828C88.5547 140.828 88.0078 141.055 87.5859 141.508C87.1719 141.961 86.9062 142.609 86.7891 143.453H91.5V143.184C91.4844 142.434 91.2812 141.855 90.8906 141.449C90.5 141.035 89.9453 140.828 89.2266 140.828ZM108.844 141.625L112.395 133.938H116.238L110.637 144.812V151H107.062V144.812L101.461 133.938H105.316L108.844 141.625ZM116.273 144.543C116.273 143.285 116.516 142.164 117 141.18C117.484 140.195 118.18 139.434 119.086 138.895C120 138.355 121.059 138.086 122.262 138.086C123.973 138.086 125.367 138.609 126.445 139.656C127.531 140.703 128.137 142.125 128.262 143.922L128.285 144.789C128.285 146.734 127.742 148.297 126.656 149.477C125.57 150.648 124.113 151.234 122.285 151.234C120.457 151.234 118.996 150.648 117.902 149.477C116.816 148.305 116.273 146.711 116.273 144.695V144.543ZM119.66 144.789C119.66 145.992 119.887 146.914 120.34 147.555C120.793 148.188 121.441 148.504 122.285 148.504C123.105 148.504 123.746 148.191 124.207 147.566C124.668 146.934 124.898 145.926 124.898 144.543C124.898 143.363 124.668 142.449 124.207 141.801C123.746 141.152 123.098 140.828 122.262 140.828C121.434 140.828 120.793 141.152 120.34 141.801C119.887 142.441 119.66 143.438 119.66 144.789ZM137.965 149.711C137.129 150.727 135.973 151.234 134.496 151.234C133.137 151.234 132.098 150.844 131.379 150.062C130.668 149.281 130.305 148.137 130.289 146.629V138.32H133.676V146.512C133.676 147.832 134.277 148.492 135.48 148.492C136.629 148.492 137.418 148.094 137.848 147.297V138.32H141.246V151H138.059L137.965 149.711ZM150.926 141.496C150.465 141.434 150.059 141.402 149.707 141.402C148.426 141.402 147.586 141.836 147.188 142.703V151H143.801V138.32H147L147.094 139.832C147.773 138.668 148.715 138.086 149.918 138.086C150.293 138.086 150.645 138.137 150.973 138.238L150.926 141.496ZM168.398 147.484H162.234L161.062 151H157.324L163.676 133.938H166.934L173.32 151H169.582L168.398 147.484ZM163.184 144.637H167.449L165.305 138.25L163.184 144.637ZM185.543 144.777C185.543 146.73 185.098 148.297 184.207 149.477C183.324 150.648 182.129 151.234 180.621 151.234C179.34 151.234 178.305 150.789 177.516 149.898V155.875H174.129V138.32H177.27L177.387 139.562C178.207 138.578 179.277 138.086 180.598 138.086C182.16 138.086 183.375 138.664 184.242 139.82C185.109 140.977 185.543 142.57 185.543 144.602V144.777ZM182.156 144.531C182.156 143.352 181.945 142.441 181.523 141.801C181.109 141.16 180.504 140.84 179.707 140.84C178.645 140.84 177.914 141.246 177.516 142.059V147.25C177.93 148.086 178.668 148.504 179.73 148.504C181.348 148.504 182.156 147.18 182.156 144.531ZM199.066 144.777C199.066 146.73 198.621 148.297 197.73 149.477C196.848 150.648 195.652 151.234 194.145 151.234C192.863 151.234 191.828 150.789 191.039 149.898V155.875H187.652V138.32H190.793L190.91 139.562C191.73 138.578 192.801 138.086 194.121 138.086C195.684 138.086 196.898 138.664 197.766 139.82C198.633 140.977 199.066 142.57 199.066 144.602V144.777ZM195.68 144.531C195.68 143.352 195.469 142.441 195.047 141.801C194.633 141.16 194.027 140.84 193.23 140.84C192.168 140.84 191.438 141.246 191.039 142.059V147.25C191.453 148.086 192.191 148.504 193.254 148.504C194.871 148.504 195.68 147.18 195.68 144.531ZM208.043 147.496C208.043 147.082 207.836 146.758 207.422 146.523C207.016 146.281 206.359 146.066 205.453 145.879C202.438 145.246 200.93 143.965 200.93 142.035C200.93 140.91 201.395 139.973 202.324 139.223C203.262 138.465 204.484 138.086 205.992 138.086C207.602 138.086 208.887 138.465 209.848 139.223C210.816 139.98 211.301 140.965 211.301 142.176H207.914C207.914 141.691 207.758 141.293 207.445 140.98C207.133 140.66 206.645 140.5 205.98 140.5C205.41 140.5 204.969 140.629 204.656 140.887C204.344 141.145 204.188 141.473 204.188 141.871C204.188 142.246 204.363 142.551 204.715 142.785C205.074 143.012 205.676 143.211 206.52 143.383C207.363 143.547 208.074 143.734 208.652 143.945C210.441 144.602 211.336 145.738 211.336 147.355C211.336 148.512 210.84 149.449 209.848 150.168C208.855 150.879 207.574 151.234 206.004 151.234C204.941 151.234 203.996 151.047 203.168 150.672C202.348 150.289 201.703 149.77 201.234 149.113C200.766 148.449 200.531 147.734 200.531 146.969H203.742C203.773 147.57 203.996 148.031 204.41 148.352C204.824 148.672 205.379 148.832 206.074 148.832C206.723 148.832 207.211 148.711 207.539 148.469C207.875 148.219 208.043 147.895 208.043 147.496Z" fill="black"/>
<rect x="35" y="169" width="235" height="28" rx="14" fill="#EBEBEB"/>
<circle cx="57.3611" cy="181" r="5.5" stroke="#9B9B9B"/>
<line x1="53.7167" y1="185.898" x2="47.7071" y2="191.815" stroke="#9B9B9B" stroke-linecap="round" stroke-linejoin="round"/>
<path d="M81.2139 185.437C81.2139 184.999 81.0589 184.662 80.749 184.425C80.4437 184.188 79.89 183.949 79.0879 183.707C78.2858 183.465 77.6478 183.197 77.1738 182.9C76.2669 182.331 75.8135 181.588 75.8135 180.672C75.8135 179.87 76.1393 179.209 76.791 178.689C77.4473 178.17 78.2972 177.91 79.3408 177.91C80.0335 177.91 80.651 178.038 81.1934 178.293C81.7357 178.548 82.1618 178.913 82.4717 179.387C82.7816 179.856 82.9365 180.378 82.9365 180.952H81.2139C81.2139 180.433 81.0498 180.027 80.7217 179.735C80.3981 179.439 79.9333 179.291 79.3271 179.291C78.762 179.291 78.3223 179.412 78.0078 179.653C77.6979 179.895 77.543 180.232 77.543 180.665C77.543 181.03 77.7116 181.335 78.0488 181.581C78.3861 181.823 78.9421 182.06 79.7168 182.292C80.4915 182.52 81.1136 182.782 81.583 183.078C82.0524 183.37 82.3965 183.707 82.6152 184.09C82.834 184.468 82.9434 184.912 82.9434 185.423C82.9434 186.252 82.6243 186.913 81.9863 187.405C81.3529 187.893 80.4915 188.137 79.4023 188.137C78.6823 188.137 78.0192 188.005 77.4131 187.74C76.8115 187.471 76.3421 187.102 76.0049 186.633C75.6722 186.163 75.5059 185.617 75.5059 184.992H77.2354C77.2354 185.557 77.4222 185.995 77.7959 186.305C78.1696 186.615 78.7051 186.77 79.4023 186.77C80.0039 186.77 80.4551 186.649 80.7559 186.407C81.0612 186.161 81.2139 185.838 81.2139 185.437ZM87.5576 188.137C86.5049 188.137 85.6504 187.806 84.9941 187.146C84.3424 186.48 84.0166 185.596 84.0166 184.493V184.288C84.0166 183.55 84.1579 182.891 84.4404 182.312C84.7275 181.729 85.1286 181.276 85.6436 180.952C86.1585 180.629 86.7327 180.467 87.3662 180.467C88.3734 180.467 89.1504 180.788 89.6973 181.431C90.2487 182.073 90.5244 182.982 90.5244 184.158V184.828H85.6914C85.7415 185.439 85.9443 185.922 86.2998 186.277C86.6598 186.633 87.111 186.811 87.6533 186.811C88.4144 186.811 89.0342 186.503 89.5127 185.888L90.4082 186.742C90.112 187.184 89.7155 187.528 89.2188 187.774C88.7266 188.016 88.1729 188.137 87.5576 188.137ZM87.3594 181.8C86.9036 181.8 86.5345 181.959 86.252 182.278C85.974 182.597 85.7962 183.042 85.7188 183.611H88.8838V183.488C88.8473 182.932 88.6992 182.513 88.4395 182.23C88.1797 181.943 87.8197 181.8 87.3594 181.8ZM96.2393 188C96.1663 187.859 96.1025 187.629 96.0479 187.31C95.5192 187.861 94.8721 188.137 94.1064 188.137C93.3636 188.137 92.7575 187.925 92.2881 187.501C91.8187 187.077 91.584 186.553 91.584 185.929C91.584 185.14 91.8757 184.536 92.459 184.117C93.0469 183.693 93.8854 183.481 94.9746 183.481H95.9932V182.996C95.9932 182.613 95.8861 182.308 95.6719 182.08C95.4577 181.848 95.1318 181.731 94.6943 181.731C94.3161 181.731 94.0062 181.827 93.7646 182.019C93.5231 182.205 93.4023 182.445 93.4023 182.736H91.7412C91.7412 182.331 91.8757 181.952 92.1445 181.602C92.4134 181.246 92.778 180.968 93.2383 180.768C93.7031 180.567 94.2204 180.467 94.79 180.467C95.6559 180.467 96.3464 180.686 96.8613 181.123C97.3763 181.556 97.6406 182.167 97.6543 182.955V186.291C97.6543 186.956 97.7477 187.487 97.9346 187.884V188H96.2393ZM94.4141 186.804C94.7422 186.804 95.0498 186.724 95.3369 186.564C95.6286 186.405 95.8473 186.191 95.9932 185.922V184.527H95.0977C94.4824 184.527 94.0199 184.634 93.71 184.849C93.4001 185.063 93.2451 185.366 93.2451 185.758C93.2451 186.077 93.3499 186.332 93.5596 186.523C93.7738 186.71 94.0586 186.804 94.4141 186.804ZM103.267 182.121C103.048 182.085 102.822 182.066 102.59 182.066C101.829 182.066 101.316 182.358 101.052 182.941V188H99.3906V180.604H100.977L101.018 181.431C101.419 180.788 101.975 180.467 102.686 180.467C102.923 180.467 103.118 180.499 103.273 180.562L103.267 182.121ZM107.218 186.811C107.632 186.811 107.977 186.69 108.25 186.448C108.523 186.207 108.669 185.908 108.688 185.553H110.253C110.235 186.013 110.091 186.444 109.822 186.845C109.553 187.241 109.189 187.556 108.729 187.788C108.268 188.021 107.771 188.137 107.238 188.137C106.204 188.137 105.383 187.802 104.777 187.132C104.171 186.462 103.868 185.537 103.868 184.356V184.186C103.868 183.06 104.169 182.16 104.771 181.485C105.372 180.806 106.192 180.467 107.231 180.467C108.111 180.467 108.826 180.724 109.378 181.239C109.934 181.75 110.226 182.422 110.253 183.256H108.688C108.669 182.832 108.523 182.483 108.25 182.21C107.981 181.937 107.637 181.8 107.218 181.8C106.68 181.8 106.265 181.996 105.974 182.388C105.682 182.775 105.534 183.365 105.529 184.158V184.425C105.529 185.227 105.673 185.826 105.96 186.223C106.252 186.615 106.671 186.811 107.218 186.811ZM113.145 181.41C113.687 180.781 114.373 180.467 115.202 180.467C116.779 180.467 117.579 181.367 117.602 183.167V188H115.94V183.229C115.94 182.718 115.829 182.358 115.605 182.148C115.387 181.934 115.063 181.827 114.635 181.827C113.969 181.827 113.473 182.123 113.145 182.716V188H111.483V177.5H113.145V181.41Z" fill="#9B9B9B"/>
<rect x="36" y="225" width="105" height="82" rx="20" fill="#D6D6D6"/>
<rect x="36" y="319" width="108" height="118" rx="20" fill="#D6D6D6"/>
<rect x="155" y="353" width="105" height="82" rx="20" fill="#D6D6D6"/>
<rect x="152" y="225" width="108" height="118" rx="20" fill="#D6D6D6"/>
</svg>
