<svg width="449" height="356" viewBox="0 0 449 356" fill="none" xmlns="http://www.w3.org/2000/svg">
<path d="M59.25 69.3125L68.4375 20.75H82.4531L67.3125 89H53.1562L42.0469 43.3438L30.9375 89H16.7812L1.64062 20.75H15.6562L24.8906 69.2188L36.1406 20.75H48.0469L59.25 69.3125ZM85.5938 63.1719C85.5938 58.1406 86.5625 53.6562 88.5 49.7188C90.4375 45.7812 93.2188 42.7344 96.8438 40.5781C100.5 38.4219 104.734 37.3438 109.547 37.3438C116.391 37.3438 121.969 39.4375 126.281 43.625C130.625 47.8125 133.047 53.5 133.547 60.6875L133.641 64.1562C133.641 71.9375 131.469 78.1875 127.125 82.9062C122.781 87.5938 116.953 89.9375 109.641 89.9375C102.328 89.9375 96.4844 87.5938 92.1094 82.9062C87.7656 78.2188 85.5938 71.8438 85.5938 63.7812V63.1719ZM99.1406 64.1562C99.1406 68.9688 100.047 72.6562 101.859 75.2188C103.672 77.75 106.266 79.0156 109.641 79.0156C112.922 79.0156 115.484 77.7656 117.328 75.2656C119.172 72.7344 120.094 68.7031 120.094 63.1719C120.094 58.4531 119.172 54.7969 117.328 52.2031C115.484 49.6094 112.891 48.3125 109.547 48.3125C106.234 48.3125 103.672 49.6094 101.859 52.2031C100.047 54.7656 99.1406 58.75 99.1406 64.1562ZM170.484 50.9844C168.641 50.7344 167.016 50.6094 165.609 50.6094C160.484 50.6094 157.125 52.3438 155.531 55.8125V89H141.984V38.2812H154.781L155.156 44.3281C157.875 39.6719 161.641 37.3438 166.453 37.3438C167.953 37.3438 169.359 37.5469 170.672 37.9531L170.484 50.9844ZM195.469 68.6562L190.594 73.5312V89H177.047V17H190.594V56.8906L193.219 53.5156L206.203 38.2812H222.469L204.141 59.4219L224.062 89H208.5L195.469 68.6562ZM296.344 70.5781L303 38.2812H316.078L303.141 89H291.797L282.188 57.0781L272.578 89H261.281L248.344 38.2812H261.422L268.031 70.5312L277.312 38.2812H287.109L296.344 70.5781ZM337.125 89H323.531V38.2812H337.125V89ZM322.734 25.1562C322.734 23.125 323.406 21.4531 324.75 20.1406C326.125 18.8281 327.984 18.1719 330.328 18.1719C332.641 18.1719 334.484 18.8281 335.859 20.1406C337.234 21.4531 337.922 23.125 337.922 25.1562C337.922 27.2188 337.219 28.9062 335.812 30.2188C334.438 31.5312 332.609 32.1875 330.328 32.1875C328.047 32.1875 326.203 31.5312 324.797 30.2188C323.422 28.9062 322.734 27.2188 322.734 25.1562ZM364.547 25.8125V38.2812H373.219V48.2188H364.547V73.5312C364.547 75.4062 364.906 76.75 365.625 77.5625C366.344 78.375 367.719 78.7812 369.75 78.7812C371.25 78.7812 372.578 78.6719 373.734 78.4531V88.7188C371.078 89.5312 368.344 89.9375 365.531 89.9375C356.031 89.9375 351.188 85.1406 351 75.5469V48.2188H343.594V38.2812H351V25.8125H364.547ZM393.984 43.8125C397.578 39.5 402.094 37.3438 407.531 37.3438C418.531 37.3438 424.109 43.7344 424.266 56.5156V89H410.719V56.8906C410.719 53.9844 410.094 51.8438 408.844 50.4688C407.594 49.0625 405.516 48.3594 402.609 48.3594C398.641 48.3594 395.766 49.8906 393.984 52.9531V89H380.438V17H393.984V43.8125Z" fill="#1D1D1D"/>
<path d="M49.3125 183.578L55.9688 151.281H69.0469L56.1094 202H44.7656L35.1562 170.078L25.5469 202H14.25L1.3125 151.281H14.3906L21 183.531L30.2812 151.281H40.0781L49.3125 183.578ZM99.1406 202.938C91.7031 202.938 85.6406 200.656 80.9531 196.094C76.2969 191.531 73.9688 185.453 73.9688 177.859V176.547C73.9688 171.453 74.9531 166.906 76.9219 162.906C78.8906 158.875 81.6719 155.781 85.2656 153.625C88.8906 151.438 93.0156 150.344 97.6406 150.344C104.578 150.344 110.031 152.531 114 156.906C118 161.281 120 167.484 120 175.516V181.047H87.7031C88.1406 184.359 89.4531 187.016 91.6406 189.016C93.8594 191.016 96.6562 192.016 100.031 192.016C105.25 192.016 109.328 190.125 112.266 186.344L118.922 193.797C116.891 196.672 114.141 198.922 110.672 200.547C107.203 202.141 103.359 202.938 99.1406 202.938ZM97.5938 161.312C94.9062 161.312 92.7188 162.219 91.0312 164.031C89.375 165.844 88.3125 168.438 87.8438 171.812H106.688V170.734C106.625 167.734 105.812 165.422 104.25 163.797C102.688 162.141 100.469 161.312 97.5938 161.312ZM165.938 202H152.344V151.281H165.938V202ZM151.547 138.156C151.547 136.125 152.219 134.453 153.562 133.141C154.938 131.828 156.797 131.172 159.141 131.172C161.453 131.172 163.297 131.828 164.672 133.141C166.047 134.453 166.734 136.125 166.734 138.156C166.734 140.219 166.031 141.906 164.625 143.219C163.25 144.531 161.422 145.188 159.141 145.188C156.859 145.188 155.016 144.531 153.609 143.219C152.234 141.906 151.547 140.219 151.547 138.156ZM189.609 151.281L190.031 157.141C193.656 152.609 198.516 150.344 204.609 150.344C209.984 150.344 213.984 151.922 216.609 155.078C219.234 158.234 220.578 162.953 220.641 169.234V202H207.094V169.562C207.094 166.688 206.469 164.609 205.219 163.328C203.969 162.016 201.891 161.359 198.984 161.359C195.172 161.359 192.312 162.984 190.406 166.234V202H176.859V151.281H189.609ZM279.281 164.5L293.484 133.75H308.859L286.453 177.25V202H272.156V177.25L249.75 133.75H265.172L279.281 164.5ZM309 176.172C309 171.141 309.969 166.656 311.906 162.719C313.844 158.781 316.625 155.734 320.25 153.578C323.906 151.422 328.141 150.344 332.953 150.344C339.797 150.344 345.375 152.438 349.688 156.625C354.031 160.812 356.453 166.5 356.953 173.688L357.047 177.156C357.047 184.938 354.875 191.188 350.531 195.906C346.188 200.594 340.359 202.938 333.047 202.938C325.734 202.938 319.891 200.594 315.516 195.906C311.172 191.219 309 184.844 309 176.781V176.172ZM322.547 177.156C322.547 181.969 323.453 185.656 325.266 188.219C327.078 190.75 329.672 192.016 333.047 192.016C336.328 192.016 338.891 190.766 340.734 188.266C342.578 185.734 343.5 181.703 343.5 176.172C343.5 171.453 342.578 167.797 340.734 165.203C338.891 162.609 336.297 161.312 332.953 161.312C329.641 161.312 327.078 162.609 325.266 165.203C323.453 167.766 322.547 171.75 322.547 177.156ZM395.766 196.844C392.422 200.906 387.797 202.938 381.891 202.938C376.453 202.938 372.297 201.375 369.422 198.25C366.578 195.125 365.125 190.547 365.062 184.516V151.281H378.609V184.047C378.609 189.328 381.016 191.969 385.828 191.969C390.422 191.969 393.578 190.375 395.297 187.188V151.281H408.891V202H396.141L395.766 196.844ZM447.609 163.984C445.766 163.734 444.141 163.609 442.734 163.609C437.609 163.609 434.25 165.344 432.656 168.812V202H419.109V151.281H431.906L432.281 157.328C435 152.672 438.766 150.344 443.578 150.344C445.078 150.344 446.484 150.547 447.797 150.953L447.609 163.984Z" fill="#1D1D1D"/>
<path d="M20.1562 296.953V321H6.09375V252.75H32.7188C37.8438 252.75 42.3438 253.688 46.2188 255.562C50.125 257.438 53.125 260.109 55.2188 263.578C57.3125 267.016 58.3594 270.938 58.3594 275.344C58.3594 282.031 56.0625 287.312 51.4688 291.188C46.9062 295.031 40.5781 296.953 32.4844 296.953H20.1562ZM20.1562 285.562H32.7188C36.4375 285.562 39.2656 284.688 41.2031 282.938C43.1719 281.188 44.1562 278.688 44.1562 275.438C44.1562 272.094 43.1719 269.391 41.2031 267.328C39.2344 265.266 36.5156 264.203 33.0469 264.141H20.1562V285.562ZM95.6719 282.984C93.8281 282.734 92.2031 282.609 90.7969 282.609C85.6719 282.609 82.3125 284.344 80.7188 287.812V321H67.1719V270.281H79.9688L80.3438 276.328C83.0625 271.672 86.8281 269.344 91.6406 269.344C93.1406 269.344 94.5469 269.547 95.8594 269.953L95.6719 282.984ZM98.4375 295.172C98.4375 290.141 99.4062 285.656 101.344 281.719C103.281 277.781 106.062 274.734 109.688 272.578C113.344 270.422 117.578 269.344 122.391 269.344C129.234 269.344 134.812 271.438 139.125 275.625C143.469 279.812 145.891 285.5 146.391 292.688L146.484 296.156C146.484 303.938 144.312 310.188 139.969 314.906C135.625 319.594 129.797 321.938 122.484 321.938C115.172 321.938 109.328 319.594 104.953 314.906C100.609 310.219 98.4375 303.844 98.4375 295.781V295.172ZM111.984 296.156C111.984 300.969 112.891 304.656 114.703 307.219C116.516 309.75 119.109 311.016 122.484 311.016C125.766 311.016 128.328 309.766 130.172 307.266C132.016 304.734 132.938 300.703 132.938 295.172C132.938 290.453 132.016 286.797 130.172 284.203C128.328 281.609 125.734 280.312 122.391 280.312C119.078 280.312 116.516 281.609 114.703 284.203C112.891 286.766 111.984 290.75 111.984 296.156ZM169.172 270.281V323.766C169.172 329.359 167.688 333.703 164.719 336.797C161.75 339.922 157.469 341.484 151.875 341.484C149.531 341.484 147.297 341.219 145.172 340.688V329.953C146.797 330.234 148.219 330.375 149.438 330.375C153.531 330.375 155.578 328.203 155.578 323.859V270.281H169.172ZM154.5 257.156C154.5 255.125 155.172 253.453 156.516 252.141C157.891 250.828 159.75 250.172 162.094 250.172C164.438 250.172 166.281 250.828 167.625 252.141C169 253.453 169.688 255.125 169.688 257.156C169.688 259.219 168.984 260.906 167.578 262.219C166.203 263.531 164.375 264.188 162.094 264.188C159.812 264.188 157.969 263.531 156.562 262.219C155.188 260.906 154.5 259.219 154.5 257.156ZM203.109 321.938C195.672 321.938 189.609 319.656 184.922 315.094C180.266 310.531 177.938 304.453 177.938 296.859V295.547C177.938 290.453 178.922 285.906 180.891 281.906C182.859 277.875 185.641 274.781 189.234 272.625C192.859 270.438 196.984 269.344 201.609 269.344C208.547 269.344 214 271.531 217.969 275.906C221.969 280.281 223.969 286.484 223.969 294.516V300.047H191.672C192.109 303.359 193.422 306.016 195.609 308.016C197.828 310.016 200.625 311.016 204 311.016C209.219 311.016 213.297 309.125 216.234 305.344L222.891 312.797C220.859 315.672 218.109 317.922 214.641 319.547C211.172 321.141 207.328 321.938 203.109 321.938ZM201.562 280.312C198.875 280.312 196.688 281.219 195 283.031C193.344 284.844 192.281 287.438 191.812 290.812H210.656V289.734C210.594 286.734 209.781 284.422 208.219 282.797C206.656 281.141 204.438 280.312 201.562 280.312ZM252.797 311.016C255.297 311.016 257.328 310.328 258.891 308.953C260.453 307.578 261.266 305.75 261.328 303.469H274.031C274 306.906 273.062 310.062 271.219 312.938C269.375 315.781 266.844 318 263.625 319.594C260.438 321.156 256.906 321.938 253.031 321.938C245.781 321.938 240.062 319.641 235.875 315.047C231.688 310.422 229.594 304.047 229.594 295.922V295.031C229.594 287.219 231.672 280.984 235.828 276.328C239.984 271.672 245.688 269.344 252.938 269.344C259.281 269.344 264.359 271.156 268.172 274.781C272.016 278.375 273.969 283.172 274.031 289.172H261.328C261.266 286.547 260.453 284.422 258.891 282.797C257.328 281.141 255.266 280.312 252.703 280.312C249.547 280.312 247.156 281.469 245.531 283.781C243.938 286.062 243.141 289.781 243.141 294.938V296.344C243.141 301.562 243.938 305.312 245.531 307.594C247.125 309.875 249.547 311.016 252.797 311.016ZM297.984 257.812V270.281H306.656V280.219H297.984V305.531C297.984 307.406 298.344 308.75 299.062 309.562C299.781 310.375 301.156 310.781 303.188 310.781C304.688 310.781 306.016 310.672 307.172 310.453V320.719C304.516 321.531 301.781 321.938 298.969 321.938C289.469 321.938 284.625 317.141 284.438 307.547V280.219H277.031V270.281H284.438V257.812H297.984Z" fill="#1D1D1D"/>
<path d="M317.859 311.016C317.859 307.781 318.938 305.156 321.094 303.141C323.297 301.125 326.039 300.117 329.32 300.117C332.648 300.117 335.391 301.125 337.547 303.141C339.75 305.156 340.852 307.781 340.852 311.016C340.852 314.203 339.773 316.805 337.617 318.82C335.461 320.789 332.695 321.773 329.32 321.773C325.992 321.773 323.25 320.789 321.094 318.82C318.938 316.805 317.859 314.203 317.859 311.016Z" fill="#50EB19"/>
</svg>
